<?xml version="1.0" encoding="utf-8" standalone="no"?>
<!DOCTYPE svg PUBLIC "-//W3C//DTD SVG 1.1//EN"
  "http://www.w3.org/Graphics/SVG/1.1/DTD/svg11.dtd">
<svg xmlns:xlink="http://www.w3.org/1999/xlink" width="801.883281pt" height="347.996316pt" viewBox="0 0 801.883281 347.996316" xmlns="http://www.w3.org/2000/svg" version="1.1">
 <metadata>
  <rdf:RDF xmlns:dc="http://purl.org/dc/elements/1.1/" xmlns:cc="http://creativecommons.org/ns#" xmlns:rdf="http://www.w3.org/1999/02/22-rdf-syntax-ns#">
   <cc:Work>
    <dc:type rdf:resource="http://purl.org/dc/dcmitype/StillImage"/>
    <dc:date>2025-02-02T09:47:53.829398</dc:date>
    <dc:format>image/svg+xml</dc:format>
    <dc:creator>
     <cc:Agent>
      <dc:title>Matplotlib v3.9.2, https://matplotlib.org/</dc:title>
     </cc:Agent>
    </dc:creator>
   </cc:Work>
  </rdf:RDF>
 </metadata>
 <defs>
  <style type="text/css">*{stroke-linejoin: round; stroke-linecap: butt}</style>
 </defs>
 <g id="figure_1">
  <g id="patch_1">
   <path d="M 0 347.996316 
L 801.883281 347.996316 
L 801.883281 0 
L 0 0 
z
" style="fill: #ffffff"/>
  </g>
  <g id="axes_1">
   <g id="patch_2">
    <path d="M 43.908437 284.4 
L 713.508438 284.4 
L 713.508438 7.2 
L 43.908437 7.2 
z
" style="fill: #ffffff"/>
   </g>
   <g id="matplotlib.axis_1">
    <g id="xtick_1">
     <g id="line2d_1">
      <defs>
       <path id="m5636dbfde1" d="M 0 0 
L 0 6 
" style="stroke: #262626; stroke-width: 1.25"/>
      </defs>
      <g>
       <use xlink:href="#m5636dbfde1" x="74.344801" y="284.4" style="fill: #262626; stroke: #262626; stroke-width: 1.25"/>
      </g>
     </g>
     <g id="text_1">
      <!-- 2024-09-17 -->
      <g style="fill: #262626" transform="translate(56.464115 339.250404) rotate(-45) scale(0.11 -0.11)">
       <defs>
        <path id="ArialMT-32" d="M 3222 541 
L 3222 0 
L 194 0 
Q 188 203 259 391 
Q 375 700 629 1000 
Q 884 1300 1366 1694 
Q 2113 2306 2375 2664 
Q 2638 3022 2638 3341 
Q 2638 3675 2398 3904 
Q 2159 4134 1775 4134 
Q 1369 4134 1125 3890 
Q 881 3647 878 3216 
L 300 3275 
Q 359 3922 746 4261 
Q 1134 4600 1788 4600 
Q 2447 4600 2831 4234 
Q 3216 3869 3216 3328 
Q 3216 3053 3103 2787 
Q 2991 2522 2730 2228 
Q 2469 1934 1863 1422 
Q 1356 997 1212 845 
Q 1069 694 975 541 
L 3222 541 
z
" transform="scale(0.015625)"/>
        <path id="ArialMT-30" d="M 266 2259 
Q 266 3072 433 3567 
Q 600 4063 929 4331 
Q 1259 4600 1759 4600 
Q 2128 4600 2406 4451 
Q 2684 4303 2865 4023 
Q 3047 3744 3150 3342 
Q 3253 2941 3253 2259 
Q 3253 1453 3087 958 
Q 2922 463 2592 192 
Q 2263 -78 1759 -78 
Q 1097 -78 719 397 
Q 266 969 266 2259 
z
M 844 2259 
Q 844 1131 1108 757 
Q 1372 384 1759 384 
Q 2147 384 2411 759 
Q 2675 1134 2675 2259 
Q 2675 3391 2411 3762 
Q 2147 4134 1753 4134 
Q 1366 4134 1134 3806 
Q 844 3388 844 2259 
z
" transform="scale(0.015625)"/>
        <path id="ArialMT-34" d="M 2069 0 
L 2069 1097 
L 81 1097 
L 81 1613 
L 2172 4581 
L 2631 4581 
L 2631 1613 
L 3250 1613 
L 3250 1097 
L 2631 1097 
L 2631 0 
L 2069 0 
z
M 2069 1613 
L 2069 3678 
L 634 1613 
L 2069 1613 
z
" transform="scale(0.015625)"/>
        <path id="ArialMT-2d" d="M 203 1375 
L 203 1941 
L 1931 1941 
L 1931 1375 
L 203 1375 
z
" transform="scale(0.015625)"/>
        <path id="ArialMT-39" d="M 350 1059 
L 891 1109 
Q 959 728 1153 556 
Q 1347 384 1650 384 
Q 1909 384 2104 503 
Q 2300 622 2425 820 
Q 2550 1019 2634 1356 
Q 2719 1694 2719 2044 
Q 2719 2081 2716 2156 
Q 2547 1888 2255 1720 
Q 1963 1553 1622 1553 
Q 1053 1553 659 1965 
Q 266 2378 266 3053 
Q 266 3750 677 4175 
Q 1088 4600 1706 4600 
Q 2153 4600 2523 4359 
Q 2894 4119 3086 3673 
Q 3278 3228 3278 2384 
Q 3278 1506 3087 986 
Q 2897 466 2520 194 
Q 2144 -78 1638 -78 
Q 1100 -78 759 220 
Q 419 519 350 1059 
z
M 2653 3081 
Q 2653 3566 2395 3850 
Q 2138 4134 1775 4134 
Q 1400 4134 1122 3828 
Q 844 3522 844 3034 
Q 844 2597 1108 2323 
Q 1372 2050 1759 2050 
Q 2150 2050 2401 2323 
Q 2653 2597 2653 3081 
z
" transform="scale(0.015625)"/>
        <path id="ArialMT-31" d="M 2384 0 
L 1822 0 
L 1822 3584 
Q 1619 3391 1289 3197 
Q 959 3003 697 2906 
L 697 3450 
Q 1169 3672 1522 3987 
Q 1875 4303 2022 4600 
L 2384 4600 
L 2384 0 
z
" transform="scale(0.015625)"/>
        <path id="ArialMT-37" d="M 303 3981 
L 303 4522 
L 3269 4522 
L 3269 4084 
Q 2831 3619 2401 2847 
Q 1972 2075 1738 1259 
Q 1569 684 1522 0 
L 944 0 
Q 953 541 1156 1306 
Q 1359 2072 1739 2783 
Q 2119 3494 2547 3981 
L 303 3981 
z
" transform="scale(0.015625)"/>
       </defs>
       <use xlink:href="#ArialMT-32"/>
       <use xlink:href="#ArialMT-30" x="55.615234"/>
       <use xlink:href="#ArialMT-32" x="111.230469"/>
       <use xlink:href="#ArialMT-34" x="166.845703"/>
       <use xlink:href="#ArialMT-2d" x="222.460938"/>
       <use xlink:href="#ArialMT-30" x="255.761719"/>
       <use xlink:href="#ArialMT-39" x="311.376953"/>
       <use xlink:href="#ArialMT-2d" x="366.992188"/>
       <use xlink:href="#ArialMT-31" x="400.292969"/>
       <use xlink:href="#ArialMT-37" x="455.908203"/>
      </g>
     </g>
    </g>
    <g id="xtick_2">
     <g id="line2d_2">
      <g>
       <use xlink:href="#m5636dbfde1" x="161.826565" y="284.4" style="fill: #262626; stroke: #262626; stroke-width: 1.25"/>
      </g>
     </g>
     <g id="text_2">
      <!-- 2024-09-18 -->
      <g style="fill: #262626" transform="translate(143.945878 339.250404) rotate(-45) scale(0.11 -0.11)">
       <defs>
        <path id="ArialMT-38" d="M 1131 2484 
Q 781 2613 612 2850 
Q 444 3088 444 3419 
Q 444 3919 803 4259 
Q 1163 4600 1759 4600 
Q 2359 4600 2725 4251 
Q 3091 3903 3091 3403 
Q 3091 3084 2923 2848 
Q 2756 2613 2416 2484 
Q 2838 2347 3058 2040 
Q 3278 1734 3278 1309 
Q 3278 722 2862 322 
Q 2447 -78 1769 -78 
Q 1091 -78 675 323 
Q 259 725 259 1325 
Q 259 1772 486 2073 
Q 713 2375 1131 2484 
z
M 1019 3438 
Q 1019 3113 1228 2906 
Q 1438 2700 1772 2700 
Q 2097 2700 2305 2904 
Q 2513 3109 2513 3406 
Q 2513 3716 2298 3927 
Q 2084 4138 1766 4138 
Q 1444 4138 1231 3931 
Q 1019 3725 1019 3438 
z
M 838 1322 
Q 838 1081 952 856 
Q 1066 631 1291 507 
Q 1516 384 1775 384 
Q 2178 384 2440 643 
Q 2703 903 2703 1303 
Q 2703 1709 2433 1975 
Q 2163 2241 1756 2241 
Q 1359 2241 1098 1978 
Q 838 1716 838 1322 
z
" transform="scale(0.015625)"/>
       </defs>
       <use xlink:href="#ArialMT-32"/>
       <use xlink:href="#ArialMT-30" x="55.615234"/>
       <use xlink:href="#ArialMT-32" x="111.230469"/>
       <use xlink:href="#ArialMT-34" x="166.845703"/>
       <use xlink:href="#ArialMT-2d" x="222.460938"/>
       <use xlink:href="#ArialMT-30" x="255.761719"/>
       <use xlink:href="#ArialMT-39" x="311.376953"/>
       <use xlink:href="#ArialMT-2d" x="366.992188"/>
       <use xlink:href="#ArialMT-31" x="400.292969"/>
       <use xlink:href="#ArialMT-38" x="455.908203"/>
      </g>
     </g>
    </g>
    <g id="xtick_3">
     <g id="line2d_3">
      <g>
       <use xlink:href="#m5636dbfde1" x="249.308329" y="284.4" style="fill: #262626; stroke: #262626; stroke-width: 1.25"/>
      </g>
     </g>
     <g id="text_3">
      <!-- 2024-09-19 -->
      <g style="fill: #262626" transform="translate(231.427642 339.250404) rotate(-45) scale(0.11 -0.11)">
       <use xlink:href="#ArialMT-32"/>
       <use xlink:href="#ArialMT-30" x="55.615234"/>
       <use xlink:href="#ArialMT-32" x="111.230469"/>
       <use xlink:href="#ArialMT-34" x="166.845703"/>
       <use xlink:href="#ArialMT-2d" x="222.460938"/>
       <use xlink:href="#ArialMT-30" x="255.761719"/>
       <use xlink:href="#ArialMT-39" x="311.376953"/>
       <use xlink:href="#ArialMT-2d" x="366.992188"/>
       <use xlink:href="#ArialMT-31" x="400.292969"/>
       <use xlink:href="#ArialMT-39" x="455.908203"/>
      </g>
     </g>
    </g>
    <g id="xtick_4">
     <g id="line2d_4">
      <g>
       <use xlink:href="#m5636dbfde1" x="336.790092" y="284.4" style="fill: #262626; stroke: #262626; stroke-width: 1.25"/>
      </g>
     </g>
     <g id="text_4">
      <!-- 2024-09-20 -->
      <g style="fill: #262626" transform="translate(318.909406 339.250404) rotate(-45) scale(0.11 -0.11)">
       <use xlink:href="#ArialMT-32"/>
       <use xlink:href="#ArialMT-30" x="55.615234"/>
       <use xlink:href="#ArialMT-32" x="111.230469"/>
       <use xlink:href="#ArialMT-34" x="166.845703"/>
       <use xlink:href="#ArialMT-2d" x="222.460938"/>
       <use xlink:href="#ArialMT-30" x="255.761719"/>
       <use xlink:href="#ArialMT-39" x="311.376953"/>
       <use xlink:href="#ArialMT-2d" x="366.992188"/>
       <use xlink:href="#ArialMT-32" x="400.292969"/>
       <use xlink:href="#ArialMT-30" x="455.908203"/>
      </g>
     </g>
    </g>
    <g id="xtick_5">
     <g id="line2d_5">
      <g>
       <use xlink:href="#m5636dbfde1" x="424.271856" y="284.4" style="fill: #262626; stroke: #262626; stroke-width: 1.25"/>
      </g>
     </g>
     <g id="text_5">
      <!-- 2024-09-21 -->
      <g style="fill: #262626" transform="translate(406.39117 339.250404) rotate(-45) scale(0.11 -0.11)">
       <use xlink:href="#ArialMT-32"/>
       <use xlink:href="#ArialMT-30" x="55.615234"/>
       <use xlink:href="#ArialMT-32" x="111.230469"/>
       <use xlink:href="#ArialMT-34" x="166.845703"/>
       <use xlink:href="#ArialMT-2d" x="222.460938"/>
       <use xlink:href="#ArialMT-30" x="255.761719"/>
       <use xlink:href="#ArialMT-39" x="311.376953"/>
       <use xlink:href="#ArialMT-2d" x="366.992188"/>
       <use xlink:href="#ArialMT-32" x="400.292969"/>
       <use xlink:href="#ArialMT-31" x="455.908203"/>
      </g>
     </g>
    </g>
    <g id="xtick_6">
     <g id="line2d_6">
      <g>
       <use xlink:href="#m5636dbfde1" x="511.75362" y="284.4" style="fill: #262626; stroke: #262626; stroke-width: 1.25"/>
      </g>
     </g>
     <g id="text_6">
      <!-- 2024-09-22 -->
      <g style="fill: #262626" transform="translate(493.872933 339.250404) rotate(-45) scale(0.11 -0.11)">
       <use xlink:href="#ArialMT-32"/>
       <use xlink:href="#ArialMT-30" x="55.615234"/>
       <use xlink:href="#ArialMT-32" x="111.230469"/>
       <use xlink:href="#ArialMT-34" x="166.845703"/>
       <use xlink:href="#ArialMT-2d" x="222.460938"/>
       <use xlink:href="#ArialMT-30" x="255.761719"/>
       <use xlink:href="#ArialMT-39" x="311.376953"/>
       <use xlink:href="#ArialMT-2d" x="366.992188"/>
       <use xlink:href="#ArialMT-32" x="400.292969"/>
       <use xlink:href="#ArialMT-32" x="455.908203"/>
      </g>
     </g>
    </g>
    <g id="xtick_7">
     <g id="line2d_7">
      <g>
       <use xlink:href="#m5636dbfde1" x="599.235384" y="284.4" style="fill: #262626; stroke: #262626; stroke-width: 1.25"/>
      </g>
     </g>
     <g id="text_7">
      <!-- 2024-09-23 -->
      <g style="fill: #262626" transform="translate(581.354697 339.250404) rotate(-45) scale(0.11 -0.11)">
       <defs>
        <path id="ArialMT-33" d="M 269 1209 
L 831 1284 
Q 928 806 1161 595 
Q 1394 384 1728 384 
Q 2125 384 2398 659 
Q 2672 934 2672 1341 
Q 2672 1728 2419 1979 
Q 2166 2231 1775 2231 
Q 1616 2231 1378 2169 
L 1441 2663 
Q 1497 2656 1531 2656 
Q 1891 2656 2178 2843 
Q 2466 3031 2466 3422 
Q 2466 3731 2256 3934 
Q 2047 4138 1716 4138 
Q 1388 4138 1169 3931 
Q 950 3725 888 3313 
L 325 3413 
Q 428 3978 793 4289 
Q 1159 4600 1703 4600 
Q 2078 4600 2393 4439 
Q 2709 4278 2876 4000 
Q 3044 3722 3044 3409 
Q 3044 3113 2884 2869 
Q 2725 2625 2413 2481 
Q 2819 2388 3044 2092 
Q 3269 1797 3269 1353 
Q 3269 753 2831 336 
Q 2394 -81 1725 -81 
Q 1122 -81 723 278 
Q 325 638 269 1209 
z
" transform="scale(0.015625)"/>
       </defs>
       <use xlink:href="#ArialMT-32"/>
       <use xlink:href="#ArialMT-30" x="55.615234"/>
       <use xlink:href="#ArialMT-32" x="111.230469"/>
       <use xlink:href="#ArialMT-34" x="166.845703"/>
       <use xlink:href="#ArialMT-2d" x="222.460938"/>
       <use xlink:href="#ArialMT-30" x="255.761719"/>
       <use xlink:href="#ArialMT-39" x="311.376953"/>
       <use xlink:href="#ArialMT-2d" x="366.992188"/>
       <use xlink:href="#ArialMT-32" x="400.292969"/>
       <use xlink:href="#ArialMT-33" x="455.908203"/>
      </g>
     </g>
    </g>
    <g id="xtick_8">
     <g id="line2d_8">
      <g>
       <use xlink:href="#m5636dbfde1" x="686.717147" y="284.4" style="fill: #262626; stroke: #262626; stroke-width: 1.25"/>
      </g>
     </g>
     <g id="text_8">
      <!-- 2024-09-24 -->
      <g style="fill: #262626" transform="translate(668.836461 339.250404) rotate(-45) scale(0.11 -0.11)">
       <use xlink:href="#ArialMT-32"/>
       <use xlink:href="#ArialMT-30" x="55.615234"/>
       <use xlink:href="#ArialMT-32" x="111.230469"/>
       <use xlink:href="#ArialMT-34" x="166.845703"/>
       <use xlink:href="#ArialMT-2d" x="222.460938"/>
       <use xlink:href="#ArialMT-30" x="255.761719"/>
       <use xlink:href="#ArialMT-39" x="311.376953"/>
       <use xlink:href="#ArialMT-2d" x="366.992188"/>
       <use xlink:href="#ArialMT-32" x="400.292969"/>
       <use xlink:href="#ArialMT-34" x="455.908203"/>
      </g>
     </g>
    </g>
   </g>
   <g id="matplotlib.axis_2">
    <g id="ytick_1">
     <g id="line2d_9">
      <defs>
       <path id="m6ae1fdf475" d="M 0 0 
L -6 0 
" style="stroke: #262626; stroke-width: 1.25"/>
      </defs>
      <g>
       <use xlink:href="#m6ae1fdf475" x="43.908437" y="252.481869" style="fill: #262626; stroke: #262626; stroke-width: 1.25"/>
      </g>
     </g>
     <g id="text_9">
      <!-- 35 -->
      <g style="fill: #262626" transform="translate(22.174375 256.418666) scale(0.11 -0.11)">
       <defs>
        <path id="ArialMT-35" d="M 266 1200 
L 856 1250 
Q 922 819 1161 601 
Q 1400 384 1738 384 
Q 2144 384 2425 690 
Q 2706 997 2706 1503 
Q 2706 1984 2436 2262 
Q 2166 2541 1728 2541 
Q 1456 2541 1237 2417 
Q 1019 2294 894 2097 
L 366 2166 
L 809 4519 
L 3088 4519 
L 3088 3981 
L 1259 3981 
L 1013 2750 
Q 1425 3038 1878 3038 
Q 2478 3038 2890 2622 
Q 3303 2206 3303 1553 
Q 3303 931 2941 478 
Q 2500 -78 1738 -78 
Q 1113 -78 717 272 
Q 322 622 266 1200 
z
" transform="scale(0.015625)"/>
       </defs>
       <use xlink:href="#ArialMT-33"/>
       <use xlink:href="#ArialMT-35" x="55.615234"/>
      </g>
     </g>
    </g>
    <g id="ytick_2">
     <g id="line2d_10">
      <g>
       <use xlink:href="#m6ae1fdf475" x="43.908437" y="215.141325" style="fill: #262626; stroke: #262626; stroke-width: 1.25"/>
      </g>
     </g>
     <g id="text_10">
      <!-- 40 -->
      <g style="fill: #262626" transform="translate(22.174375 219.078122) scale(0.11 -0.11)">
       <use xlink:href="#ArialMT-34"/>
       <use xlink:href="#ArialMT-30" x="55.615234"/>
      </g>
     </g>
    </g>
    <g id="ytick_3">
     <g id="line2d_11">
      <g>
       <use xlink:href="#m6ae1fdf475" x="43.908437" y="177.800781" style="fill: #262626; stroke: #262626; stroke-width: 1.25"/>
      </g>
     </g>
     <g id="text_11">
      <!-- 45 -->
      <g style="fill: #262626" transform="translate(22.174375 181.737578) scale(0.11 -0.11)">
       <use xlink:href="#ArialMT-34"/>
       <use xlink:href="#ArialMT-35" x="55.615234"/>
      </g>
     </g>
    </g>
    <g id="ytick_4">
     <g id="line2d_12">
      <g>
       <use xlink:href="#m6ae1fdf475" x="43.908437" y="140.460237" style="fill: #262626; stroke: #262626; stroke-width: 1.25"/>
      </g>
     </g>
     <g id="text_12">
      <!-- 50 -->
      <g style="fill: #262626" transform="translate(22.174375 144.397034) scale(0.11 -0.11)">
       <use xlink:href="#ArialMT-35"/>
       <use xlink:href="#ArialMT-30" x="55.615234"/>
      </g>
     </g>
    </g>
    <g id="ytick_5">
     <g id="line2d_13">
      <g>
       <use xlink:href="#m6ae1fdf475" x="43.908437" y="103.119693" style="fill: #262626; stroke: #262626; stroke-width: 1.25"/>
      </g>
     </g>
     <g id="text_13">
      <!-- 55 -->
      <g style="fill: #262626" transform="translate(22.174375 107.056489) scale(0.11 -0.11)">
       <use xlink:href="#ArialMT-35"/>
       <use xlink:href="#ArialMT-35" x="55.615234"/>
      </g>
     </g>
    </g>
    <g id="ytick_6">
     <g id="line2d_14">
      <g>
       <use xlink:href="#m6ae1fdf475" x="43.908437" y="65.779148" style="fill: #262626; stroke: #262626; stroke-width: 1.25"/>
      </g>
     </g>
     <g id="text_14">
      <!-- 60 -->
      <g style="fill: #262626" transform="translate(22.174375 69.715945) scale(0.11 -0.11)">
       <defs>
        <path id="ArialMT-36" d="M 3184 3459 
L 2625 3416 
Q 2550 3747 2413 3897 
Q 2184 4138 1850 4138 
Q 1581 4138 1378 3988 
Q 1113 3794 959 3422 
Q 806 3050 800 2363 
Q 1003 2672 1297 2822 
Q 1591 2972 1913 2972 
Q 2475 2972 2870 2558 
Q 3266 2144 3266 1488 
Q 3266 1056 3080 686 
Q 2894 316 2569 119 
Q 2244 -78 1831 -78 
Q 1128 -78 684 439 
Q 241 956 241 2144 
Q 241 3472 731 4075 
Q 1159 4600 1884 4600 
Q 2425 4600 2770 4297 
Q 3116 3994 3184 3459 
z
M 888 1484 
Q 888 1194 1011 928 
Q 1134 663 1356 523 
Q 1578 384 1822 384 
Q 2178 384 2434 671 
Q 2691 959 2691 1453 
Q 2691 1928 2437 2201 
Q 2184 2475 1800 2475 
Q 1419 2475 1153 2201 
Q 888 1928 888 1484 
z
" transform="scale(0.015625)"/>
       </defs>
       <use xlink:href="#ArialMT-36"/>
       <use xlink:href="#ArialMT-30" x="55.615234"/>
      </g>
     </g>
    </g>
    <g id="ytick_7">
     <g id="line2d_15">
      <g>
       <use xlink:href="#m6ae1fdf475" x="43.908437" y="28.438604" style="fill: #262626; stroke: #262626; stroke-width: 1.25"/>
      </g>
     </g>
     <g id="text_15">
      <!-- 65 -->
      <g style="fill: #262626" transform="translate(22.174375 32.375401) scale(0.11 -0.11)">
       <use xlink:href="#ArialMT-36"/>
       <use xlink:href="#ArialMT-35" x="55.615234"/>
      </g>
     </g>
    </g>
    <g id="text_16">
     <!-- load -->
     <g style="fill: #262626" transform="translate(15.789375 157.142813) rotate(-90) scale(0.12 -0.12)">
      <defs>
       <path id="ArialMT-6c" d="M 409 0 
L 409 4581 
L 972 4581 
L 972 0 
L 409 0 
z
" transform="scale(0.015625)"/>
       <path id="ArialMT-6f" d="M 213 1659 
Q 213 2581 725 3025 
Q 1153 3394 1769 3394 
Q 2453 3394 2887 2945 
Q 3322 2497 3322 1706 
Q 3322 1066 3130 698 
Q 2938 331 2570 128 
Q 2203 -75 1769 -75 
Q 1072 -75 642 372 
Q 213 819 213 1659 
z
M 791 1659 
Q 791 1022 1069 705 
Q 1347 388 1769 388 
Q 2188 388 2466 706 
Q 2744 1025 2744 1678 
Q 2744 2294 2464 2611 
Q 2184 2928 1769 2928 
Q 1347 2928 1069 2612 
Q 791 2297 791 1659 
z
" transform="scale(0.015625)"/>
       <path id="ArialMT-61" d="M 2588 409 
Q 2275 144 1986 34 
Q 1697 -75 1366 -75 
Q 819 -75 525 192 
Q 231 459 231 875 
Q 231 1119 342 1320 
Q 453 1522 633 1644 
Q 813 1766 1038 1828 
Q 1203 1872 1538 1913 
Q 2219 1994 2541 2106 
Q 2544 2222 2544 2253 
Q 2544 2597 2384 2738 
Q 2169 2928 1744 2928 
Q 1347 2928 1158 2789 
Q 969 2650 878 2297 
L 328 2372 
Q 403 2725 575 2942 
Q 747 3159 1072 3276 
Q 1397 3394 1825 3394 
Q 2250 3394 2515 3294 
Q 2781 3194 2906 3042 
Q 3031 2891 3081 2659 
Q 3109 2516 3109 2141 
L 3109 1391 
Q 3109 606 3145 398 
Q 3181 191 3288 0 
L 2700 0 
Q 2613 175 2588 409 
z
M 2541 1666 
Q 2234 1541 1622 1453 
Q 1275 1403 1131 1340 
Q 988 1278 909 1158 
Q 831 1038 831 891 
Q 831 666 1001 516 
Q 1172 366 1500 366 
Q 1825 366 2078 508 
Q 2331 650 2450 897 
Q 2541 1088 2541 1459 
L 2541 1666 
z
" transform="scale(0.015625)"/>
       <path id="ArialMT-64" d="M 2575 0 
L 2575 419 
Q 2259 -75 1647 -75 
Q 1250 -75 917 144 
Q 584 363 401 755 
Q 219 1147 219 1656 
Q 219 2153 384 2558 
Q 550 2963 881 3178 
Q 1213 3394 1622 3394 
Q 1922 3394 2156 3267 
Q 2391 3141 2538 2938 
L 2538 4581 
L 3097 4581 
L 3097 0 
L 2575 0 
z
M 797 1656 
Q 797 1019 1065 703 
Q 1334 388 1700 388 
Q 2069 388 2326 689 
Q 2584 991 2584 1609 
Q 2584 2291 2321 2609 
Q 2059 2928 1675 2928 
Q 1300 2928 1048 2622 
Q 797 2316 797 1656 
z
" transform="scale(0.015625)"/>
      </defs>
      <use xlink:href="#ArialMT-6c"/>
      <use xlink:href="#ArialMT-6f" x="22.216797"/>
      <use xlink:href="#ArialMT-61" x="77.832031"/>
      <use xlink:href="#ArialMT-64" x="133.447266"/>
     </g>
    </g>
   </g>
   <g id="PolyCollection_1">
    <defs>
     <path id="m77762d0fd0" d="M 74.344801 -171.079412 
L 74.344801 -161.386134 
L 77.989875 -154.48497 
L 81.634948 -150.693781 
L 85.280022 -151.413859 
L 88.925095 -159.030052 
L 92.570169 -182.833922 
L 96.215242 -232.769049 
L 99.860316 -269.716903 
L 103.505389 -293.328523 
L 107.150463 -298.608583 
L 110.795536 -301.083196 
L 114.44061 -299.391784 
L 118.085683 -297.538567 
L 121.730756 -285.976908 
L 125.37583 -278.1675 
L 129.020903 -276.164945 
L 132.665977 -273.352796 
L 136.31105 -275.464735 
L 139.956124 -276.271584 
L 143.601197 -276.971426 
L 147.246271 -265.278508 
L 150.891344 -241.070902 
L 154.536418 -212.736742 
L 158.181491 -188.430705 
L 161.826565 -168.129419 
L 165.471638 -158.696049 
L 169.116712 -154.354665 
L 172.761785 -155.362881 
L 176.406859 -162.45071 
L 180.051932 -186.105883 
L 183.697006 -239.938199 
L 187.342079 -268.838945 
L 190.987153 -293.264325 
L 194.632226 -298.487381 
L 198.2773 -302.838331 
L 201.922373 -301.870853 
L 205.567447 -300.579148 
L 209.21252 -287.32249 
L 212.857594 -275.32158 
L 216.502667 -271.246529 
L 220.147741 -274.266627 
L 223.792814 -277.529736 
L 227.437888 -278.680862 
L 231.082961 -277.977243 
L 234.728035 -270.181221 
L 238.373108 -244.531371 
L 242.018182 -214.495395 
L 245.663255 -192.282819 
L 249.308329 -166.704094 
L 252.953402 -158.707958 
L 256.598476 -155.902739 
L 260.243549 -156.373759 
L 263.888623 -160.509396 
L 267.533696 -182.697331 
L 271.17877 -239.541233 
L 274.823843 -270.759388 
L 278.468917 -290.930144 
L 282.11399 -294.870955 
L 285.759064 -296.585072 
L 289.404137 -295.78422 
L 293.04921 -290.439154 
L 296.694284 -282.495986 
L 300.339357 -273.224076 
L 303.984431 -262.093371 
L 307.629504 -266.73852 
L 311.274578 -271.693782 
L 314.919651 -271.397404 
L 318.564725 -271.958026 
L 322.209798 -262.291695 
L 325.854872 -239.077643 
L 329.499945 -210.182945 
L 333.145019 -190.315452 
L 336.790092 -164.392752 
L 340.435166 -155.79186 
L 344.080239 -152.005356 
L 347.725313 -152.612986 
L 351.370386 -156.50638 
L 355.01546 -177.196976 
L 358.660533 -231.743307 
L 362.305607 -265.544417 
L 365.95068 -288.118906 
L 369.595754 -291.206581 
L 373.240827 -294.859493 
L 376.885901 -293.907081 
L 380.530974 -286.158341 
L 384.176048 -278.446619 
L 387.821121 -271.707883 
L 391.466195 -261.359067 
L 395.111268 -256.509534 
L 398.756342 -266.066241 
L 402.401415 -265.969152 
L 406.046489 -265.295989 
L 409.691562 -254.137842 
L 413.336636 -228.589783 
L 416.981709 -200.071574 
L 420.626783 -172.517895 
L 424.271856 -145.704216 
L 427.91693 -134.282852 
L 431.562003 -127.304166 
L 435.207077 -124.133934 
L 438.85215 -125.305969 
L 442.497224 -128.996261 
L 446.142297 -145.002249 
L 449.787371 -161.657235 
L 453.432444 -178.300866 
L 457.077518 -204.358499 
L 460.722591 -209.147568 
L 464.367665 -216.380631 
L 468.012738 -208.580186 
L 471.657811 -200.782441 
L 475.302885 -181.918905 
L 478.947958 -181.458928 
L 482.593032 -184.167277 
L 486.238105 -186.962587 
L 489.883179 -201.048817 
L 493.528252 -203.449164 
L 497.173326 -199.347615 
L 500.818399 -180.72452 
L 504.463473 -161.499553 
L 508.108546 -145.56457 
L 511.75362 -119.065928 
L 515.398693 -109.040656 
L 519.043767 -101.217273 
L 522.68884 -97.772265 
L 526.333914 -98.30822 
L 529.978987 -101.879968 
L 533.624061 -109.495647 
L 537.269134 -120.045408 
L 540.914208 -140.127099 
L 544.559281 -162.745602 
L 548.204355 -173.772855 
L 551.849428 -185.622824 
L 555.494502 -180.080483 
L 559.139575 -166.378549 
L 562.784649 -152.735149 
L 566.429722 -155.734815 
L 570.074796 -158.056699 
L 573.719869 -173.759751 
L 577.364943 -190.731463 
L 581.010016 -195.651002 
L 584.65509 -196.262286 
L 588.300163 -179.852656 
L 591.945237 -160.889234 
L 595.59031 -144.35142 
L 599.235384 -138.667505 
L 602.880457 -127.828446 
L 606.525531 -122.062943 
L 610.170604 -123.56304 
L 613.815678 -131.085484 
L 617.460751 -163.573934 
L 621.105825 -221.80418 
L 624.750898 -262.135463 
L 628.395972 -282.903418 
L 632.041045 -292.612784 
L 635.686119 -295.640604 
L 639.331192 -298.205627 
L 642.976265 -295.553206 
L 646.621339 -289.14896 
L 650.266412 -273.423617 
L 653.911486 -272.067573 
L 657.556559 -269.821961 
L 661.201633 -274.708551 
L 664.846706 -277.287349 
L 668.49178 -278.121515 
L 672.136853 -267.781846 
L 675.781927 -237.543584 
L 679.427 -207.092853 
L 683.072074 -179.017263 
L 683.072074 -189.802168 
L 683.072074 -189.802168 
L 679.427 -220.15474 
L 675.781927 -253.534868 
L 672.136853 -283.574945 
L 668.49178 -295.399328 
L 664.846706 -296.024948 
L 661.201633 -294.001773 
L 657.556559 -287.314373 
L 653.911486 -291.282178 
L 650.266412 -293.290791 
L 646.621339 -306.004114 
L 642.976265 -311.332637 
L 639.331192 -313.830365 
L 635.686119 -310.518878 
L 632.041045 -307.11664 
L 628.395972 -297.359494 
L 624.750898 -276.388598 
L 621.105825 -233.118717 
L 617.460751 -173.95787 
L 613.815678 -141.751502 
L 610.170604 -133.777066 
L 606.525531 -131.55973 
L 602.880457 -138.052572 
L 599.235384 -149.837021 
L 595.59031 -157.689105 
L 591.945237 -175.390664 
L 588.300163 -190.616474 
L 584.65509 -206.982971 
L 581.010016 -207.452671 
L 577.364943 -203.203139 
L 573.719869 -186.522032 
L 570.074796 -173.790276 
L 566.429722 -170.891221 
L 562.784649 -169.578883 
L 559.139575 -181.460966 
L 555.494502 -192.415996 
L 551.849428 -196.873076 
L 548.204355 -185.649906 
L 544.559281 -174.813268 
L 540.914208 -150.832848 
L 537.269134 -130.072337 
L 533.624061 -117.858166 
L 529.978987 -109.365619 
L 526.333914 -107.34041 
L 522.68884 -107.674512 
L 519.043767 -111.410915 
L 515.398693 -120.388231 
L 511.75362 -130.144371 
L 508.108546 -156.310334 
L 504.463473 -173.123029 
L 500.818399 -191.194612 
L 497.173326 -209.327793 
L 493.528252 -215.080926 
L 489.883179 -213.493159 
L 486.238105 -200.381267 
L 482.593032 -195.950794 
L 478.947958 -193.824138 
L 475.302885 -195.83122 
L 471.657811 -213.953782 
L 468.012738 -220.872513 
L 464.367665 -229.047869 
L 460.722591 -220.83329 
L 457.077518 -215.872245 
L 453.432444 -189.751467 
L 449.787371 -171.846552 
L 446.142297 -155.956454 
L 442.497224 -139.195758 
L 438.85215 -135.592279 
L 435.207077 -133.87442 
L 431.562003 -137.076335 
L 427.91693 -145.334276 
L 424.271856 -157.436179 
L 420.626783 -181.661131 
L 416.981709 -208.622794 
L 413.336636 -239.82194 
L 409.691562 -264.485503 
L 406.046489 -275.133602 
L 402.401415 -277.247401 
L 398.756342 -277.493926 
L 395.111268 -268.764021 
L 391.466195 -273.032195 
L 387.821121 -283.614875 
L 384.176048 -291.11176 
L 380.530974 -299.199684 
L 376.885901 -306.213348 
L 373.240827 -306.685446 
L 369.595754 -302.654926 
L 365.95068 -298.973273 
L 362.305607 -275.729036 
L 358.660533 -243.875323 
L 355.01546 -186.036199 
L 351.370386 -164.984486 
L 347.725313 -160.758663 
L 344.080239 -160.258159 
L 340.435166 -164.453667 
L 336.790092 -173.516745 
L 333.145019 -199.15132 
L 329.499945 -220.486121 
L 325.854872 -251.172158 
L 322.209798 -275.131611 
L 318.564725 -284.182156 
L 314.919651 -285.012977 
L 311.274578 -285.540297 
L 307.629504 -281.762008 
L 303.984431 -277.057069 
L 300.339357 -287.213137 
L 296.694284 -296.662892 
L 293.04921 -303.891969 
L 289.404137 -308.788362 
L 285.759064 -309.565265 
L 282.11399 -307.092976 
L 278.468917 -302.705215 
L 274.823843 -281.735243 
L 271.17877 -250.118642 
L 267.533696 -192.578022 
L 263.888623 -169.087385 
L 260.243549 -164.331113 
L 256.598476 -164.236864 
L 252.953402 -167.689263 
L 249.308329 -176.363177 
L 245.663255 -202.237575 
L 242.018182 -225.274961 
L 238.373108 -256.330555 
L 234.728035 -281.392216 
L 231.082961 -289.81058 
L 227.437888 -291.766384 
L 223.792814 -290.897603 
L 220.147741 -287.378556 
L 216.502667 -282.864605 
L 212.857594 -287.307726 
L 209.21252 -301.328917 
L 205.567447 -313.204273 
L 201.922373 -314.051427 
L 198.2773 -314.828746 
L 194.632226 -309.746367 
L 190.987153 -303.994588 
L 187.342079 -278.950288 
L 183.697006 -250.194745 
L 180.051932 -194.809794 
L 176.406859 -171.516142 
L 172.761785 -164.268705 
L 169.116712 -163.81053 
L 165.471638 -167.847001 
L 161.826565 -179.173858 
L 158.181491 -198.527406 
L 154.536418 -223.041983 
L 150.891344 -252.243023 
L 147.246271 -275.417022 
L 143.601197 -287.805355 
L 139.956124 -288.164542 
L 136.31105 -287.535944 
L 132.665977 -286.036661 
L 129.020903 -288.574693 
L 125.37583 -291.219936 
L 121.730756 -298.856267 
L 118.085683 -310.317662 
L 114.44061 -311.7918 
L 110.795536 -313.172895 
L 107.150463 -310.411052 
L 103.505389 -304.152109 
L 99.860316 -279.870966 
L 96.215242 -245.055497 
L 92.570169 -192.862682 
L 88.925095 -168.205348 
L 85.280022 -160.670742 
L 81.634948 -159.890246 
L 77.989875 -163.431259 
L 74.344801 -171.079412 
z
" style="stroke: #1f78b4; stroke-opacity: 0.4"/>
    </defs>
    <g clip-path="url(#p234526304e)">
     <use xlink:href="#m77762d0fd0" x="0" y="347.996316" style="fill: #1f78b4; fill-opacity: 0.4; stroke: #1f78b4; stroke-opacity: 0.4"/>
    </g>
   </g>
   <g id="PolyCollection_2">
    <defs>
     <path id="md4edf9803c" d="M 74.344801 -183.309374 
L 74.344801 -146.184105 
L 77.989875 -141.658148 
L 81.634948 -138.129717 
L 85.280022 -140.058083 
L 88.925095 -148.100298 
L 92.570169 -171.009882 
L 96.215242 -225.377638 
L 99.860316 -260.88611 
L 103.505389 -282.027748 
L 107.150463 -289.037443 
L 110.795536 -289.587162 
L 114.44061 -289.704038 
L 118.085683 -287.137402 
L 121.730756 -273.667727 
L 125.37583 -267.213564 
L 129.020903 -266.039532 
L 132.665977 -262.967261 
L 136.31105 -265.348334 
L 139.956124 -266.290599 
L 143.601197 -266.355264 
L 147.246271 -253.956701 
L 150.891344 -227.603954 
L 154.536418 -202.824039 
L 158.181491 -177.721337 
L 161.826565 -159.112924 
L 165.471638 -150.721427 
L 169.116712 -146.125381 
L 172.761785 -147.319884 
L 176.406859 -156.49192 
L 180.051932 -177.553662 
L 183.697006 -225.7871 
L 187.342079 -259.663603 
L 190.987153 -282.299021 
L 194.632226 -288.815936 
L 198.2773 -293.424498 
L 201.922373 -292.190385 
L 205.567447 -289.815852 
L 209.21252 -272.750336 
L 212.857594 -265.609099 
L 216.502667 -261.218829 
L 220.147741 -264.395978 
L 223.792814 -267.258009 
L 227.437888 -268.050988 
L 231.082961 -266.887919 
L 234.728035 -257.814153 
L 238.373108 -230.416861 
L 242.018182 -202.472026 
L 245.663255 -182.00148 
L 249.308329 -161.861757 
L 252.953402 -153.231331 
L 256.598476 -149.475578 
L 260.243549 -150.396606 
L 263.888623 -155.432649 
L 267.533696 -173.320562 
L 271.17877 -226.478286 
L 274.823843 -259.031728 
L 278.468917 -281.180309 
L 282.11399 -283.25609 
L 285.759064 -285.871093 
L 289.404137 -284.878913 
L 293.04921 -281.519681 
L 296.694284 -270.095965 
L 300.339357 -258.99729 
L 303.984431 -248.588642 
L 307.629504 -255.22938 
L 311.274578 -259.664593 
L 314.919651 -259.104474 
L 318.564725 -259.3443 
L 322.209798 -248.93263 
L 325.854872 -225.049859 
L 329.499945 -199.012874 
L 333.145019 -181.635243 
L 336.790092 -155.206394 
L 340.435166 -147.922432 
L 344.080239 -143.884234 
L 347.725313 -144.780013 
L 351.370386 -149.0946 
L 355.01546 -167.931351 
L 358.660533 -217.960614 
L 362.305607 -255.919837 
L 365.95068 -280.328565 
L 369.595754 -282.791324 
L 373.240827 -287.451217 
L 376.885901 -285.252622 
L 380.530974 -277.490898 
L 384.176048 -266.916364 
L 387.821121 -261.075132 
L 391.466195 -250.590051 
L 395.111268 -245.356959 
L 398.756342 -256.055148 
L 402.401415 -255.762547 
L 406.046489 -254.345091 
L 409.691562 -243.138954 
L 413.336636 -216.664125 
L 416.981709 -190.950214 
L 420.626783 -163.386175 
L 424.271856 -136.075356 
L 427.91693 -125.472621 
L 431.562003 -118.309967 
L 435.207077 -114.866984 
L 438.85215 -116.714366 
L 442.497224 -120.702538 
L 446.142297 -137.243911 
L 449.787371 -153.801353 
L 453.432444 -170.141297 
L 457.077518 -197.143514 
L 460.722591 -200.833842 
L 464.367665 -206.767912 
L 468.012738 -199.364853 
L 471.657811 -191.194671 
L 475.302885 -170.637712 
L 478.947958 -170.951772 
L 482.593032 -174.970182 
L 486.238105 -177.345463 
L 489.883179 -192.610234 
L 493.528252 -195.77131 
L 497.173326 -193.659587 
L 500.818399 -170.586604 
L 504.463473 -151.303055 
L 508.108546 -136.635502 
L 511.75362 -110.573665 
L 515.398693 -99.398916 
L 519.043767 -93.702979 
L 522.68884 -91.09709 
L 526.333914 -91.120375 
L 529.978987 -94.522399 
L 533.624061 -101.936656 
L 537.269134 -113.213121 
L 540.914208 -132.110201 
L 544.559281 -152.79943 
L 548.204355 -163.129812 
L 551.849428 -177.353383 
L 555.494502 -168.539862 
L 559.139575 -152.880707 
L 562.784649 -138.987719 
L 566.429722 -143.675609 
L 570.074796 -146.306901 
L 573.719869 -160.002171 
L 577.364943 -178.908527 
L 581.010016 -183.67113 
L 584.65509 -184.554341 
L 588.300163 -165.091024 
L 591.945237 -147.755502 
L 595.59031 -131.767772 
L 599.235384 -126.514086 
L 602.880457 -114.348937 
L 606.525531 -109.489002 
L 610.170604 -110.563353 
L 613.815678 -117.7413 
L 617.460751 -146.671512 
L 621.105825 -191.226144 
L 624.750898 -226.995947 
L 628.395972 -248.426228 
L 632.041045 -267.543933 
L 635.686119 -273.761064 
L 639.331192 -278.151924 
L 642.976265 -274.872616 
L 646.621339 -263.533016 
L 650.266412 -250.303312 
L 653.911486 -250.807045 
L 657.556559 -247.489384 
L 661.201633 -257.435408 
L 664.846706 -260.413917 
L 668.49178 -259.577015 
L 672.136853 -248.768562 
L 675.781927 -219.055224 
L 679.427 -189.892773 
L 683.072074 -162.166767 
L 683.072074 -204.032342 
L 683.072074 -204.032342 
L 679.427 -234.924279 
L 675.781927 -268.292801 
L 672.136853 -295.730429 
L 668.49178 -305.780891 
L 664.846706 -308.577577 
L 661.201633 -308.144194 
L 657.556559 -299.021536 
L 653.911486 -305.306185 
L 650.266412 -306.905576 
L 646.621339 -317.403485 
L 642.976265 -322.086788 
L 639.331192 -324.65696 
L 635.686119 -321.209919 
L 632.041045 -317.838733 
L 628.395972 -308.92307 
L 624.750898 -287.60883 
L 621.105825 -247.487392 
L 617.460751 -183.478179 
L 613.815678 -151.738144 
L 610.170604 -143.275248 
L 606.525531 -140.76525 
L 602.880457 -148.210179 
L 599.235384 -161.35108 
L 595.59031 -168.976494 
L 591.945237 -185.281935 
L 588.300163 -199.791199 
L 584.65509 -218.630798 
L 581.010016 -220.206187 
L 577.364943 -218.163607 
L 573.719869 -198.873052 
L 570.074796 -187.208301 
L 566.429722 -184.854265 
L 562.784649 -184.867879 
L 559.139575 -195.605523 
L 555.494502 -207.913235 
L 551.849428 -212.724264 
L 548.204355 -200.310356 
L 544.559281 -187.429034 
L 540.914208 -163.583188 
L 537.269134 -140.798056 
L 533.624061 -126.624531 
L 529.978987 -118.569347 
L 526.333914 -115.091559 
L 522.68884 -116.170552 
L 519.043767 -120.283879 
L 515.398693 -130.063197 
L 511.75362 -142.08218 
L 508.108546 -170.597933 
L 504.463473 -185.516816 
L 500.818399 -202.409469 
L 497.173326 -222.985541 
L 493.528252 -230.254777 
L 489.883179 -229.81148 
L 486.238105 -217.06621 
L 482.593032 -210.927264 
L 478.947958 -208.354392 
L 475.302885 -213.673889 
L 471.657811 -230.635076 
L 468.012738 -238.325845 
L 464.367665 -246.367272 
L 460.722591 -237.191396 
L 457.077518 -231.276339 
L 453.432444 -204.101412 
L 449.787371 -184.336892 
L 446.142297 -167.507111 
L 442.497224 -150.703224 
L 438.85215 -145.736677 
L 435.207077 -144.506719 
L 431.562003 -148.031315 
L 427.91693 -156.306338 
L 424.271856 -170.889033 
L 420.626783 -193.454893 
L 416.981709 -221.316585 
L 413.336636 -254.733196 
L 409.691562 -276.65951 
L 406.046489 -288.612401 
L 402.401415 -291.882405 
L 398.756342 -291.427314 
L 395.111268 -283.594551 
L 391.466195 -287.25213 
L 387.821121 -297.044271 
L 384.176048 -304.638077 
L 380.530974 -312.063618 
L 376.885901 -319.631294 
L 373.240827 -320.402871 
L 369.595754 -315.050292 
L 365.95068 -310.940896 
L 362.305607 -287.429342 
L 358.660533 -257.262724 
L 355.01546 -197.499829 
L 351.370386 -176.836531 
L 347.725313 -171.06805 
L 344.080239 -171.383213 
L 340.435166 -176.662765 
L 336.790092 -184.450992 
L 333.145019 -210.851043 
L 329.499945 -234.038806 
L 325.854872 -267.016973 
L 322.209798 -288.287155 
L 318.564725 -297.74691 
L 314.919651 -298.764677 
L 311.274578 -299.221387 
L 307.629504 -294.860552 
L 303.984431 -291.62949 
L 300.339357 -301.035589 
L 296.694284 -309.520798 
L 293.04921 -316.849609 
L 289.404137 -320.765354 
L 285.759064 -321.508857 
L 282.11399 -318.9323 
L 278.468917 -314.063441 
L 274.823843 -294.392059 
L 271.17877 -261.68408 
L 267.533696 -203.789178 
L 263.888623 -177.517231 
L 260.243549 -173.762742 
L 256.598476 -174.114048 
L 252.953402 -177.693055 
L 249.308329 -187.124038 
L 245.663255 -216.210298 
L 242.018182 -237.860662 
L 238.373108 -271.840511 
L 234.728035 -294.707221 
L 231.082961 -301.612355 
L 227.437888 -304.461238 
L 223.792814 -303.469282 
L 220.147741 -300.703495 
L 216.502667 -295.188169 
L 212.857594 -298.254155 
L 209.21252 -314.298172 
L 205.567447 -327.807436 
L 201.922373 -328.08705 
L 198.2773 -328.196316 
L 194.632226 -322.460124 
L 190.987153 -316.189743 
L 187.342079 -290.459285 
L 183.697006 -261.805761 
L 180.051932 -208.847499 
L 176.406859 -181.846624 
L 172.761785 -175.944752 
L 169.116712 -175.959564 
L 165.471638 -179.524697 
L 161.826565 -190.047561 
L 158.181491 -212.074441 
L 154.536418 -236.443576 
L 150.891344 -264.021698 
L 147.246271 -288.987812 
L 143.601197 -300.39987 
L 139.956124 -301.225822 
L 136.31105 -299.741455 
L 132.665977 -298.205431 
L 129.020903 -300.779879 
L 125.37583 -303.019915 
L 121.730756 -310.892372 
L 118.085683 -322.690502 
L 114.44061 -324.326564 
L 110.795536 -323.33612 
L 107.150463 -322.758202 
L 103.505389 -314.740895 
L 99.860316 -290.412455 
L 96.215242 -256.403834 
L 92.570169 -204.681496 
L 88.925095 -179.232416 
L 85.280022 -172.882453 
L 81.634948 -171.195851 
L 77.989875 -175.340155 
L 74.344801 -183.309374 
z
" style="stroke: #a6cee3; stroke-opacity: 0.4"/>
    </defs>
    <g clip-path="url(#p234526304e)">
     <use xlink:href="#md4edf9803c" x="0" y="347.996316" style="fill: #a6cee3; fill-opacity: 0.4; stroke: #a6cee3; stroke-opacity: 0.4"/>
    </g>
   </g>
   <g id="line2d_16">
    <path d="M 74.344801 187.610138 
L 77.989875 197.369098 
L 81.634948 205.71098 
L 85.280022 204.023175 
L 88.925095 195.987488 
L 92.570169 170.68368 
L 96.215242 112.936513 
L 99.860316 75.909629 
L 103.505389 54.86076 
L 107.150463 46.401277 
L 110.795536 39.272952 
L 114.44061 33.914621 
L 118.085683 37.193086 
L 121.730756 57.022786 
L 125.37583 75.623974 
L 129.020903 87.89594 
L 132.665977 90.104659 
L 136.31105 85.192488 
L 139.956124 74.638183 
L 143.601197 70.284275 
L 147.246271 79.318828 
L 150.891344 106.704381 
L 158.181491 170.319596 
L 161.826565 192.147029 
L 165.471638 202.755462 
L 169.116712 206.250554 
L 172.761785 206.816251 
L 176.406859 200.666252 
L 180.051932 173.357247 
L 183.697006 113.950308 
L 187.342079 77.937217 
L 190.987153 58.869273 
L 194.632226 54.752475 
L 198.2773 53.120706 
L 201.922373 60.570155 
L 205.567447 76.096343 
L 209.21252 88.88173 
L 212.857594 100.171666 
L 216.502667 101.773579 
L 220.147741 102.005077 
L 223.792814 91.269671 
L 227.437888 78.146323 
L 231.082961 74.104222 
L 234.728035 85.248497 
L 238.373108 111.314089 
L 242.018182 140.581598 
L 245.663255 171.615313 
L 249.308329 192.46254 
L 252.953402 202.897363 
L 256.598476 208.479785 
L 260.243549 210.882625 
L 263.888623 200.694256 
L 267.533696 170.834897 
L 271.17877 111.711761 
L 274.823843 76.919691 
L 278.468917 54.970925 
L 282.11399 52.035975 
L 285.759064 56.322651 
L 289.404137 62.694833 
L 293.04921 77.106405 
L 296.694284 87.36571 
L 300.339357 95.100814 
L 303.984431 97.514879 
L 307.629504 99.232541 
L 311.274578 84.757467 
L 314.919651 73.669202 
L 318.564725 69.305977 
L 322.209798 83.267601 
L 325.854872 112.271847 
L 329.499945 143.214113 
L 333.145019 172.052214 
L 336.790092 192.568973 
L 340.435166 206.633269 
L 344.080239 211.493164 
L 347.725313 211.704122 
L 351.370386 203.515337 
L 355.01546 177.959491 
L 358.660533 124.366471 
L 362.305607 90.85331 
L 365.95068 69.513203 
L 369.595754 67.560283 
L 373.240827 71.693889 
L 376.885901 77.153069 
L 380.530974 86.772009 
L 384.176048 101.471116 
L 387.821121 112.290535 
L 391.466195 115.677314 
L 395.111268 117.264298 
L 398.756342 112.957054 
L 402.401415 99.807582 
L 406.046489 88.151739 
L 409.691562 102.555847 
L 413.336636 131.429416 
L 416.981709 161.796612 
L 420.626783 189.030948 
L 424.271856 225.917812 
L 427.91693 238.479165 
L 431.562003 246.882668 
L 435.207077 251.904947 
L 438.85215 251.2235 
L 442.497224 243.729239 
L 446.142297 227.204185 
L 449.787371 209.441303 
L 453.432444 184.352184 
L 457.077518 163.314512 
L 460.722591 155.34979 
L 464.367665 161.036736 
L 468.012738 172.487234 
L 475.302885 198.381013 
L 478.947958 201.336531 
L 482.593032 200.104286 
L 486.238105 190.089555 
L 489.883179 175.347516 
L 493.528252 164.572881 
L 497.173326 170.928254 
L 500.818399 190.362134 
L 504.463473 208.806492 
L 508.108546 228.667928 
L 511.75362 244.894279 
L 515.398693 260.431663 
L 519.043767 269.137629 
L 522.68884 271.8 
L 526.333914 271.142797 
L 529.978987 267.630925 
L 533.624061 257.47056 
L 537.269134 245.812836 
L 540.914208 220.163633 
L 544.559281 200.345129 
L 548.204355 188.735949 
L 551.849428 185.829004 
L 555.494502 192.24785 
L 559.139575 205.628819 
L 562.784649 216.741357 
L 566.429722 218.576648 
L 570.074796 212.127946 
L 573.719869 196.894878 
L 577.364943 177.548743 
L 581.010016 169.068691 
L 584.65509 174.249709 
L 588.300163 192.221697 
L 591.945237 205.738985 
L 595.59031 225.508916 
L 599.235384 238.438085 
L 602.880457 246.56898 
L 606.525531 250.745548 
L 610.170604 251.018126 
L 613.815678 242.418594 
L 617.460751 213.192137 
L 621.105825 149.453709 
L 624.750898 109.960483 
L 628.395972 82.494649 
L 635.686119 63.665667 
L 639.331192 61.115312 
L 642.976265 66.867611 
L 646.621339 77.519005 
L 650.266412 96.198621 
L 653.911486 100.756024 
L 657.556559 107.895546 
L 661.201633 101.446844 
L 664.846706 96.400264 
L 668.49178 92.686749 
L 672.136853 108.265213 
L 675.781927 136.160485 
L 679.427 165.058326 
L 683.072074 192.684722 
L 683.072074 192.684722 
" clip-path="url(#p234526304e)" style="fill: none; stroke: #000000; stroke-width: 1.5; stroke-linecap: round"/>
    <defs>
     <path id="ma2041daa8b" d="M 0 2 
C 0.530406 2 1.03916 1.789267 1.414214 1.414214 
C 1.789267 1.03916 2 0.530406 2 0 
C 2 -0.530406 1.789267 -1.03916 1.414214 -1.414214 
C 1.03916 -1.789267 0.530406 -2 0 -2 
C -0.530406 -2 -1.03916 -1.789267 -1.414214 -1.414214 
C -1.789267 -1.03916 -2 -0.530406 -2 0 
C -2 0.530406 -1.789267 1.03916 -1.414214 1.414214 
C -1.03916 1.789267 -0.530406 2 0 2 
z
" style="stroke: #000000"/>
    </defs>
    <g clip-path="url(#p234526304e)">
     <use xlink:href="#ma2041daa8b" x="74.344801" y="187.610138" style="stroke: #000000"/>
     <use xlink:href="#ma2041daa8b" x="77.989875" y="197.369098" style="stroke: #000000"/>
     <use xlink:href="#ma2041daa8b" x="81.634948" y="205.71098" style="stroke: #000000"/>
     <use xlink:href="#ma2041daa8b" x="85.280022" y="204.023175" style="stroke: #000000"/>
     <use xlink:href="#ma2041daa8b" x="88.925095" y="195.987488" style="stroke: #000000"/>
     <use xlink:href="#ma2041daa8b" x="92.570169" y="170.68368" style="stroke: #000000"/>
     <use xlink:href="#ma2041daa8b" x="96.215242" y="112.936513" style="stroke: #000000"/>
     <use xlink:href="#ma2041daa8b" x="99.860316" y="75.909629" style="stroke: #000000"/>
     <use xlink:href="#ma2041daa8b" x="103.505389" y="54.86076" style="stroke: #000000"/>
     <use xlink:href="#ma2041daa8b" x="107.150463" y="46.401277" style="stroke: #000000"/>
     <use xlink:href="#ma2041daa8b" x="110.795536" y="39.272952" style="stroke: #000000"/>
     <use xlink:href="#ma2041daa8b" x="114.44061" y="33.914621" style="stroke: #000000"/>
     <use xlink:href="#ma2041daa8b" x="118.085683" y="37.193086" style="stroke: #000000"/>
     <use xlink:href="#ma2041daa8b" x="121.730756" y="57.022786" style="stroke: #000000"/>
     <use xlink:href="#ma2041daa8b" x="125.37583" y="75.623974" style="stroke: #000000"/>
     <use xlink:href="#ma2041daa8b" x="129.020903" y="87.89594" style="stroke: #000000"/>
     <use xlink:href="#ma2041daa8b" x="132.665977" y="90.104659" style="stroke: #000000"/>
     <use xlink:href="#ma2041daa8b" x="136.31105" y="85.192488" style="stroke: #000000"/>
     <use xlink:href="#ma2041daa8b" x="139.956124" y="74.638183" style="stroke: #000000"/>
     <use xlink:href="#ma2041daa8b" x="143.601197" y="70.284275" style="stroke: #000000"/>
     <use xlink:href="#ma2041daa8b" x="147.246271" y="79.318828" style="stroke: #000000"/>
     <use xlink:href="#ma2041daa8b" x="150.891344" y="106.704381" style="stroke: #000000"/>
     <use xlink:href="#ma2041daa8b" x="154.536418" y="138.59321" style="stroke: #000000"/>
     <use xlink:href="#ma2041daa8b" x="158.181491" y="170.319596" style="stroke: #000000"/>
     <use xlink:href="#ma2041daa8b" x="161.826565" y="192.147029" style="stroke: #000000"/>
     <use xlink:href="#ma2041daa8b" x="165.471638" y="202.755462" style="stroke: #000000"/>
     <use xlink:href="#ma2041daa8b" x="169.116712" y="206.250554" style="stroke: #000000"/>
     <use xlink:href="#ma2041daa8b" x="172.761785" y="206.816251" style="stroke: #000000"/>
     <use xlink:href="#ma2041daa8b" x="176.406859" y="200.666252" style="stroke: #000000"/>
     <use xlink:href="#ma2041daa8b" x="180.051932" y="173.357247" style="stroke: #000000"/>
     <use xlink:href="#ma2041daa8b" x="183.697006" y="113.950308" style="stroke: #000000"/>
     <use xlink:href="#ma2041daa8b" x="187.342079" y="77.937217" style="stroke: #000000"/>
     <use xlink:href="#ma2041daa8b" x="190.987153" y="58.869273" style="stroke: #000000"/>
     <use xlink:href="#ma2041daa8b" x="194.632226" y="54.752475" style="stroke: #000000"/>
     <use xlink:href="#ma2041daa8b" x="198.2773" y="53.120706" style="stroke: #000000"/>
     <use xlink:href="#ma2041daa8b" x="201.922373" y="60.570155" style="stroke: #000000"/>
     <use xlink:href="#ma2041daa8b" x="205.567447" y="76.096343" style="stroke: #000000"/>
     <use xlink:href="#ma2041daa8b" x="209.21252" y="88.88173" style="stroke: #000000"/>
     <use xlink:href="#ma2041daa8b" x="212.857594" y="100.171666" style="stroke: #000000"/>
     <use xlink:href="#ma2041daa8b" x="216.502667" y="101.773579" style="stroke: #000000"/>
     <use xlink:href="#ma2041daa8b" x="220.147741" y="102.005077" style="stroke: #000000"/>
     <use xlink:href="#ma2041daa8b" x="223.792814" y="91.269671" style="stroke: #000000"/>
     <use xlink:href="#ma2041daa8b" x="227.437888" y="78.146323" style="stroke: #000000"/>
     <use xlink:href="#ma2041daa8b" x="231.082961" y="74.104222" style="stroke: #000000"/>
     <use xlink:href="#ma2041daa8b" x="234.728035" y="85.248497" style="stroke: #000000"/>
     <use xlink:href="#ma2041daa8b" x="238.373108" y="111.314089" style="stroke: #000000"/>
     <use xlink:href="#ma2041daa8b" x="242.018182" y="140.581598" style="stroke: #000000"/>
     <use xlink:href="#ma2041daa8b" x="245.663255" y="171.615313" style="stroke: #000000"/>
     <use xlink:href="#ma2041daa8b" x="249.308329" y="192.46254" style="stroke: #000000"/>
     <use xlink:href="#ma2041daa8b" x="252.953402" y="202.897363" style="stroke: #000000"/>
     <use xlink:href="#ma2041daa8b" x="256.598476" y="208.479785" style="stroke: #000000"/>
     <use xlink:href="#ma2041daa8b" x="260.243549" y="210.882625" style="stroke: #000000"/>
     <use xlink:href="#ma2041daa8b" x="263.888623" y="200.694256" style="stroke: #000000"/>
     <use xlink:href="#ma2041daa8b" x="267.533696" y="170.834897" style="stroke: #000000"/>
     <use xlink:href="#ma2041daa8b" x="271.17877" y="111.711761" style="stroke: #000000"/>
     <use xlink:href="#ma2041daa8b" x="274.823843" y="76.919691" style="stroke: #000000"/>
     <use xlink:href="#ma2041daa8b" x="278.468917" y="54.970925" style="stroke: #000000"/>
     <use xlink:href="#ma2041daa8b" x="282.11399" y="52.035975" style="stroke: #000000"/>
     <use xlink:href="#ma2041daa8b" x="285.759064" y="56.322651" style="stroke: #000000"/>
     <use xlink:href="#ma2041daa8b" x="289.404137" y="62.694833" style="stroke: #000000"/>
     <use xlink:href="#ma2041daa8b" x="293.04921" y="77.106405" style="stroke: #000000"/>
     <use xlink:href="#ma2041daa8b" x="296.694284" y="87.36571" style="stroke: #000000"/>
     <use xlink:href="#ma2041daa8b" x="300.339357" y="95.100814" style="stroke: #000000"/>
     <use xlink:href="#ma2041daa8b" x="303.984431" y="97.514879" style="stroke: #000000"/>
     <use xlink:href="#ma2041daa8b" x="307.629504" y="99.232541" style="stroke: #000000"/>
     <use xlink:href="#ma2041daa8b" x="311.274578" y="84.757467" style="stroke: #000000"/>
     <use xlink:href="#ma2041daa8b" x="314.919651" y="73.669202" style="stroke: #000000"/>
     <use xlink:href="#ma2041daa8b" x="318.564725" y="69.305977" style="stroke: #000000"/>
     <use xlink:href="#ma2041daa8b" x="322.209798" y="83.267601" style="stroke: #000000"/>
     <use xlink:href="#ma2041daa8b" x="325.854872" y="112.271847" style="stroke: #000000"/>
     <use xlink:href="#ma2041daa8b" x="329.499945" y="143.214113" style="stroke: #000000"/>
     <use xlink:href="#ma2041daa8b" x="333.145019" y="172.052214" style="stroke: #000000"/>
     <use xlink:href="#ma2041daa8b" x="336.790092" y="192.568973" style="stroke: #000000"/>
     <use xlink:href="#ma2041daa8b" x="340.435166" y="206.633269" style="stroke: #000000"/>
     <use xlink:href="#ma2041daa8b" x="344.080239" y="211.493164" style="stroke: #000000"/>
     <use xlink:href="#ma2041daa8b" x="347.725313" y="211.704122" style="stroke: #000000"/>
     <use xlink:href="#ma2041daa8b" x="351.370386" y="203.515337" style="stroke: #000000"/>
     <use xlink:href="#ma2041daa8b" x="355.01546" y="177.959491" style="stroke: #000000"/>
     <use xlink:href="#ma2041daa8b" x="358.660533" y="124.366471" style="stroke: #000000"/>
     <use xlink:href="#ma2041daa8b" x="362.305607" y="90.85331" style="stroke: #000000"/>
     <use xlink:href="#ma2041daa8b" x="365.95068" y="69.513203" style="stroke: #000000"/>
     <use xlink:href="#ma2041daa8b" x="369.595754" y="67.560283" style="stroke: #000000"/>
     <use xlink:href="#ma2041daa8b" x="373.240827" y="71.693889" style="stroke: #000000"/>
     <use xlink:href="#ma2041daa8b" x="376.885901" y="77.153069" style="stroke: #000000"/>
     <use xlink:href="#ma2041daa8b" x="380.530974" y="86.772009" style="stroke: #000000"/>
     <use xlink:href="#ma2041daa8b" x="384.176048" y="101.471116" style="stroke: #000000"/>
     <use xlink:href="#ma2041daa8b" x="387.821121" y="112.290535" style="stroke: #000000"/>
     <use xlink:href="#ma2041daa8b" x="391.466195" y="115.677314" style="stroke: #000000"/>
     <use xlink:href="#ma2041daa8b" x="395.111268" y="117.264298" style="stroke: #000000"/>
     <use xlink:href="#ma2041daa8b" x="398.756342" y="112.957054" style="stroke: #000000"/>
     <use xlink:href="#ma2041daa8b" x="402.401415" y="99.807582" style="stroke: #000000"/>
     <use xlink:href="#ma2041daa8b" x="406.046489" y="88.151739" style="stroke: #000000"/>
     <use xlink:href="#ma2041daa8b" x="409.691562" y="102.555847" style="stroke: #000000"/>
     <use xlink:href="#ma2041daa8b" x="413.336636" y="131.429416" style="stroke: #000000"/>
     <use xlink:href="#ma2041daa8b" x="416.981709" y="161.796612" style="stroke: #000000"/>
     <use xlink:href="#ma2041daa8b" x="420.626783" y="189.030948" style="stroke: #000000"/>
     <use xlink:href="#ma2041daa8b" x="424.271856" y="225.917812" style="stroke: #000000"/>
     <use xlink:href="#ma2041daa8b" x="427.91693" y="238.479165" style="stroke: #000000"/>
     <use xlink:href="#ma2041daa8b" x="431.562003" y="246.882668" style="stroke: #000000"/>
     <use xlink:href="#ma2041daa8b" x="435.207077" y="251.904947" style="stroke: #000000"/>
     <use xlink:href="#ma2041daa8b" x="438.85215" y="251.2235" style="stroke: #000000"/>
     <use xlink:href="#ma2041daa8b" x="442.497224" y="243.729239" style="stroke: #000000"/>
     <use xlink:href="#ma2041daa8b" x="446.142297" y="227.204185" style="stroke: #000000"/>
     <use xlink:href="#ma2041daa8b" x="449.787371" y="209.441303" style="stroke: #000000"/>
     <use xlink:href="#ma2041daa8b" x="453.432444" y="184.352184" style="stroke: #000000"/>
     <use xlink:href="#ma2041daa8b" x="457.077518" y="163.314512" style="stroke: #000000"/>
     <use xlink:href="#ma2041daa8b" x="460.722591" y="155.34979" style="stroke: #000000"/>
     <use xlink:href="#ma2041daa8b" x="464.367665" y="161.036736" style="stroke: #000000"/>
     <use xlink:href="#ma2041daa8b" x="468.012738" y="172.487234" style="stroke: #000000"/>
     <use xlink:href="#ma2041daa8b" x="471.657811" y="185.576937" style="stroke: #000000"/>
     <use xlink:href="#ma2041daa8b" x="475.302885" y="198.381013" style="stroke: #000000"/>
     <use xlink:href="#ma2041daa8b" x="478.947958" y="201.336531" style="stroke: #000000"/>
     <use xlink:href="#ma2041daa8b" x="482.593032" y="200.104286" style="stroke: #000000"/>
     <use xlink:href="#ma2041daa8b" x="486.238105" y="190.089555" style="stroke: #000000"/>
     <use xlink:href="#ma2041daa8b" x="489.883179" y="175.347516" style="stroke: #000000"/>
     <use xlink:href="#ma2041daa8b" x="493.528252" y="164.572881" style="stroke: #000000"/>
     <use xlink:href="#ma2041daa8b" x="497.173326" y="170.928254" style="stroke: #000000"/>
     <use xlink:href="#ma2041daa8b" x="500.818399" y="190.362134" style="stroke: #000000"/>
     <use xlink:href="#ma2041daa8b" x="504.463473" y="208.806492" style="stroke: #000000"/>
     <use xlink:href="#ma2041daa8b" x="508.108546" y="228.667928" style="stroke: #000000"/>
     <use xlink:href="#ma2041daa8b" x="511.75362" y="244.894279" style="stroke: #000000"/>
     <use xlink:href="#ma2041daa8b" x="515.398693" y="260.431663" style="stroke: #000000"/>
     <use xlink:href="#ma2041daa8b" x="519.043767" y="269.137629" style="stroke: #000000"/>
     <use xlink:href="#ma2041daa8b" x="522.68884" y="271.8" style="stroke: #000000"/>
     <use xlink:href="#ma2041daa8b" x="526.333914" y="271.142797" style="stroke: #000000"/>
     <use xlink:href="#ma2041daa8b" x="529.978987" y="267.630925" style="stroke: #000000"/>
     <use xlink:href="#ma2041daa8b" x="533.624061" y="257.47056" style="stroke: #000000"/>
     <use xlink:href="#ma2041daa8b" x="537.269134" y="245.812836" style="stroke: #000000"/>
     <use xlink:href="#ma2041daa8b" x="540.914208" y="220.163633" style="stroke: #000000"/>
     <use xlink:href="#ma2041daa8b" x="544.559281" y="200.345129" style="stroke: #000000"/>
     <use xlink:href="#ma2041daa8b" x="548.204355" y="188.735949" style="stroke: #000000"/>
     <use xlink:href="#ma2041daa8b" x="551.849428" y="185.829004" style="stroke: #000000"/>
     <use xlink:href="#ma2041daa8b" x="555.494502" y="192.24785" style="stroke: #000000"/>
     <use xlink:href="#ma2041daa8b" x="559.139575" y="205.628819" style="stroke: #000000"/>
     <use xlink:href="#ma2041daa8b" x="562.784649" y="216.741357" style="stroke: #000000"/>
     <use xlink:href="#ma2041daa8b" x="566.429722" y="218.576648" style="stroke: #000000"/>
     <use xlink:href="#ma2041daa8b" x="570.074796" y="212.127946" style="stroke: #000000"/>
     <use xlink:href="#ma2041daa8b" x="573.719869" y="196.894878" style="stroke: #000000"/>
     <use xlink:href="#ma2041daa8b" x="577.364943" y="177.548743" style="stroke: #000000"/>
     <use xlink:href="#ma2041daa8b" x="581.010016" y="169.068691" style="stroke: #000000"/>
     <use xlink:href="#ma2041daa8b" x="584.65509" y="174.249709" style="stroke: #000000"/>
     <use xlink:href="#ma2041daa8b" x="588.300163" y="192.221697" style="stroke: #000000"/>
     <use xlink:href="#ma2041daa8b" x="591.945237" y="205.738985" style="stroke: #000000"/>
     <use xlink:href="#ma2041daa8b" x="595.59031" y="225.508916" style="stroke: #000000"/>
     <use xlink:href="#ma2041daa8b" x="599.235384" y="238.438085" style="stroke: #000000"/>
     <use xlink:href="#ma2041daa8b" x="602.880457" y="246.56898" style="stroke: #000000"/>
     <use xlink:href="#ma2041daa8b" x="606.525531" y="250.745548" style="stroke: #000000"/>
     <use xlink:href="#ma2041daa8b" x="610.170604" y="251.018126" style="stroke: #000000"/>
     <use xlink:href="#ma2041daa8b" x="613.815678" y="242.418594" style="stroke: #000000"/>
     <use xlink:href="#ma2041daa8b" x="617.460751" y="213.192137" style="stroke: #000000"/>
     <use xlink:href="#ma2041daa8b" x="621.105825" y="149.453709" style="stroke: #000000"/>
     <use xlink:href="#ma2041daa8b" x="624.750898" y="109.960483" style="stroke: #000000"/>
     <use xlink:href="#ma2041daa8b" x="628.395972" y="82.494649" style="stroke: #000000"/>
     <use xlink:href="#ma2041daa8b" x="632.041045" y="73.030687" style="stroke: #000000"/>
     <use xlink:href="#ma2041daa8b" x="635.686119" y="63.665667" style="stroke: #000000"/>
     <use xlink:href="#ma2041daa8b" x="639.331192" y="61.115312" style="stroke: #000000"/>
     <use xlink:href="#ma2041daa8b" x="642.976265" y="66.867611" style="stroke: #000000"/>
     <use xlink:href="#ma2041daa8b" x="646.621339" y="77.519005" style="stroke: #000000"/>
     <use xlink:href="#ma2041daa8b" x="650.266412" y="96.198621" style="stroke: #000000"/>
     <use xlink:href="#ma2041daa8b" x="653.911486" y="100.756024" style="stroke: #000000"/>
     <use xlink:href="#ma2041daa8b" x="657.556559" y="107.895546" style="stroke: #000000"/>
     <use xlink:href="#ma2041daa8b" x="661.201633" y="101.446844" style="stroke: #000000"/>
     <use xlink:href="#ma2041daa8b" x="664.846706" y="96.400264" style="stroke: #000000"/>
     <use xlink:href="#ma2041daa8b" x="668.49178" y="92.686749" style="stroke: #000000"/>
     <use xlink:href="#ma2041daa8b" x="672.136853" y="108.265213" style="stroke: #000000"/>
     <use xlink:href="#ma2041daa8b" x="675.781927" y="136.160485" style="stroke: #000000"/>
     <use xlink:href="#ma2041daa8b" x="679.427" y="165.058326" style="stroke: #000000"/>
     <use xlink:href="#ma2041daa8b" x="683.072074" y="192.684722" style="stroke: #000000"/>
    </g>
   </g>
   <g id="line2d_17">
    <path d="M 74.344801 181.579302 
L 77.989875 189.048468 
L 81.634948 192.441351 
L 85.280022 191.978593 
L 88.925095 184.887547 
L 92.570169 160.188715 
L 96.215242 108.338901 
L 99.860316 73.215685 
L 103.505389 49.304616 
L 107.150463 43.679008 
L 110.795536 41.30866 
L 114.44061 42.507342 
L 118.085683 44.140763 
L 121.730756 55.453489 
L 125.37583 63.307381 
L 129.020903 65.717098 
L 132.665977 68.410816 
L 136.31105 66.484841 
L 139.956124 65.776793 
L 143.601197 65.556824 
L 147.246271 77.485764 
L 150.891344 100.959784 
L 154.536418 130.738647 
L 158.181491 154.890361 
L 161.826565 174.42513 
L 165.471638 184.488996 
L 169.116712 188.638543 
L 172.761785 187.968534 
L 176.406859 180.957536 
L 180.051932 157.639852 
L 183.697006 102.758411 
L 187.342079 74.338552 
L 190.987153 49.574868 
L 194.632226 44.20832 
L 198.2773 39.503689 
L 201.922373 40.404762 
L 205.567447 41.537958 
L 209.21252 53.978883 
L 212.857594 66.980343 
L 216.502667 71.319409 
L 220.147741 67.476098 
L 223.792814 64.161572 
L 227.437888 63.037999 
L 231.082961 64.256952 
L 234.728035 72.222153 
L 238.373108 97.53542 
L 242.018182 128.426216 
L 245.663255 151.223848 
L 249.308329 176.513603 
L 252.953402 184.743617 
L 256.598476 187.823509 
L 260.243549 187.657079 
L 263.888623 183.367614 
L 267.533696 160.809581 
L 271.17877 103.402282 
L 274.823843 72.20405 
L 278.468917 51.628478 
L 282.11399 47.459333 
L 285.759064 45.275824 
L 289.404137 46.072818 
L 293.04921 51.376223 
L 296.694284 58.865507 
L 300.339357 68.026679 
L 303.984431 78.546099 
L 307.629504 73.677709 
L 311.274578 69.738208 
L 314.919651 70.043989 
L 318.564725 70.063329 
L 322.209798 78.870097 
L 325.854872 102.963001 
L 329.499945 133.1468 
L 333.145019 153.501829 
L 336.790092 179.127301 
L 340.435166 188.042106 
L 344.080239 191.917429 
L 347.725313 191.394292 
L 351.370386 187.399132 
L 355.01546 166.980586 
L 358.660533 111.272411 
L 362.305607 78.122808 
L 365.95068 55.373002 
L 369.595754 51.85615 
L 373.240827 48.058688 
L 376.885901 48.548129 
L 384.176048 63.885747 
L 387.821121 70.890726 
L 391.466195 81.249609 
L 395.111268 86.003148 
L 398.756342 76.799859 
L 402.401415 76.996875 
L 406.046489 78.126002 
L 409.691562 88.988165 
L 413.336636 114.255258 
L 416.981709 144.472336 
L 420.626783 170.991923 
L 424.271856 196.240865 
L 427.91693 208.29891 
L 431.562003 216.053064 
L 435.207077 219.131438 
L 438.85215 217.7579 
L 442.497224 214.770844 
L 446.142297 197.760484 
L 449.787371 181.45207 
L 453.432444 163.949835 
L 457.077518 138.406351 
L 460.722591 133.593872 
L 464.367665 125.899901 
L 468.012738 133.759245 
L 471.657811 141.027604 
L 475.302885 159.220901 
L 478.947958 160.087287 
L 482.593032 157.786328 
L 486.238105 154.150129 
L 489.883179 141.240564 
L 493.528252 138.909904 
L 497.173326 143.899447 
L 500.818399 161.602085 
L 504.463473 180.832812 
L 508.108546 197.228773 
L 511.75362 223.595935 
L 515.398693 233.213645 
L 519.043767 241.614216 
L 522.68884 245.057893 
L 526.333914 245.593261 
L 529.978987 242.433604 
L 533.624061 234.318001 
L 537.269134 223.219784 
L 540.914208 202.527855 
L 544.559281 179.054283 
L 551.849428 156.868176 
L 555.494502 161.735857 
L 559.139575 173.536137 
L 562.784649 186.191758 
L 566.429722 184.089475 
L 570.074796 181.608448 
L 573.719869 167.364489 
L 577.364943 151.024159 
L 581.010016 146.321237 
L 584.65509 146.09904 
L 591.945237 179.342394 
L 595.59031 197.076958 
L 599.235384 203.326362 
L 602.880457 214.851307 
L 606.525531 220.904606 
L 610.170604 218.942909 
L 613.815678 211.16277 
L 617.460751 178.915771 
L 621.105825 120.705025 
L 624.750898 78.081352 
L 628.395972 57.237768 
L 632.041045 47.496806 
L 635.686119 44.933523 
L 639.331192 42.030893 
L 642.976265 44.646729 
L 646.621339 50.214098 
L 650.266412 64.027065 
L 653.911486 65.987477 
L 657.556559 69.045587 
L 661.201633 63.838086 
L 664.846706 61.503828 
L 668.49178 61.319186 
L 672.136853 72.509344 
L 675.781927 102.204676 
L 679.427 134.399992 
L 683.072074 163.202479 
L 683.072074 163.202479 
" clip-path="url(#p234526304e)" style="fill: none; stroke: #1f78b4; stroke-width: 1.5; stroke-linecap: round"/>
   </g>
   <g id="patch_3">
    <path d="M 43.908437 284.4 
L 43.908437 7.2 
" style="fill: none; stroke: #262626; stroke-width: 1.25; stroke-linejoin: miter; stroke-linecap: square"/>
   </g>
   <g id="patch_4">
    <path d="M 713.508438 284.4 
L 713.508438 7.2 
" style="fill: none; stroke: #262626; stroke-width: 1.25; stroke-linejoin: miter; stroke-linecap: square"/>
   </g>
   <g id="patch_5">
    <path d="M 43.908438 284.4 
L 713.508437 284.4 
" style="fill: none; stroke: #262626; stroke-width: 1.25; stroke-linejoin: miter; stroke-linecap: square"/>
   </g>
   <g id="patch_6">
    <path d="M 43.908438 7.2 
L 713.508437 7.2 
" style="fill: none; stroke: #262626; stroke-width: 1.25; stroke-linejoin: miter; stroke-linecap: square"/>
   </g>
   <g id="legend_1">
    <g id="patch_7">
     <path d="M 721.208438 78.239375 
L 792.483281 78.239375 
Q 794.683281 78.239375 794.683281 76.039375 
L 794.683281 14.9 
Q 794.683281 12.7 792.483281 12.7 
L 721.208438 12.7 
Q 719.008438 12.7 719.008438 14.9 
L 719.008438 76.039375 
Q 719.008438 78.239375 721.208438 78.239375 
z
" style="fill: #ffffff; opacity: 0.8; stroke: #cccccc; stroke-linejoin: miter"/>
    </g>
    <g id="line2d_18">
     <path d="M 723.408437 21.123594 
L 734.408437 21.123594 
L 745.408437 21.123594 
" style="fill: none; stroke: #000000; stroke-width: 1.5; stroke-linecap: round"/>
     <g>
      <use xlink:href="#ma2041daa8b" x="734.408437" y="21.123594" style="stroke: #000000"/>
     </g>
    </g>
    <g id="text_17">
     <!-- actual -->
     <g style="fill: #262626" transform="translate(754.208437 24.973594) scale(0.11 -0.11)">
      <defs>
       <path id="ArialMT-63" d="M 2588 1216 
L 3141 1144 
Q 3050 572 2676 248 
Q 2303 -75 1759 -75 
Q 1078 -75 664 370 
Q 250 816 250 1647 
Q 250 2184 428 2587 
Q 606 2991 970 3192 
Q 1334 3394 1763 3394 
Q 2303 3394 2647 3120 
Q 2991 2847 3088 2344 
L 2541 2259 
Q 2463 2594 2264 2762 
Q 2066 2931 1784 2931 
Q 1359 2931 1093 2626 
Q 828 2322 828 1663 
Q 828 994 1084 691 
Q 1341 388 1753 388 
Q 2084 388 2306 591 
Q 2528 794 2588 1216 
z
" transform="scale(0.015625)"/>
       <path id="ArialMT-74" d="M 1650 503 
L 1731 6 
Q 1494 -44 1306 -44 
Q 1000 -44 831 53 
Q 663 150 594 308 
Q 525 466 525 972 
L 525 2881 
L 113 2881 
L 113 3319 
L 525 3319 
L 525 4141 
L 1084 4478 
L 1084 3319 
L 1650 3319 
L 1650 2881 
L 1084 2881 
L 1084 941 
Q 1084 700 1114 631 
Q 1144 563 1211 522 
Q 1278 481 1403 481 
Q 1497 481 1650 503 
z
" transform="scale(0.015625)"/>
       <path id="ArialMT-75" d="M 2597 0 
L 2597 488 
Q 2209 -75 1544 -75 
Q 1250 -75 995 37 
Q 741 150 617 320 
Q 494 491 444 738 
Q 409 903 409 1263 
L 409 3319 
L 972 3319 
L 972 1478 
Q 972 1038 1006 884 
Q 1059 663 1231 536 
Q 1403 409 1656 409 
Q 1909 409 2131 539 
Q 2353 669 2445 892 
Q 2538 1116 2538 1541 
L 2538 3319 
L 3100 3319 
L 3100 0 
L 2597 0 
z
" transform="scale(0.015625)"/>
      </defs>
      <use xlink:href="#ArialMT-61"/>
      <use xlink:href="#ArialMT-63" x="55.615234"/>
      <use xlink:href="#ArialMT-74" x="105.615234"/>
      <use xlink:href="#ArialMT-75" x="133.398438"/>
      <use xlink:href="#ArialMT-61" x="189.013672"/>
      <use xlink:href="#ArialMT-6c" x="244.628906"/>
     </g>
    </g>
    <g id="line2d_19">
     <path d="M 723.408437 36.683437 
L 734.408437 36.683437 
L 745.408437 36.683437 
" style="fill: none; stroke: #1f78b4; stroke-width: 1.5; stroke-linecap: round"/>
    </g>
    <g id="text_18">
     <!-- median -->
     <g style="fill: #262626" transform="translate(754.208437 40.533437) scale(0.11 -0.11)">
      <defs>
       <path id="ArialMT-6d" d="M 422 0 
L 422 3319 
L 925 3319 
L 925 2853 
Q 1081 3097 1340 3245 
Q 1600 3394 1931 3394 
Q 2300 3394 2536 3241 
Q 2772 3088 2869 2813 
Q 3263 3394 3894 3394 
Q 4388 3394 4653 3120 
Q 4919 2847 4919 2278 
L 4919 0 
L 4359 0 
L 4359 2091 
Q 4359 2428 4304 2576 
Q 4250 2725 4106 2815 
Q 3963 2906 3769 2906 
Q 3419 2906 3187 2673 
Q 2956 2441 2956 1928 
L 2956 0 
L 2394 0 
L 2394 2156 
Q 2394 2531 2256 2718 
Q 2119 2906 1806 2906 
Q 1569 2906 1367 2781 
Q 1166 2656 1075 2415 
Q 984 2175 984 1722 
L 984 0 
L 422 0 
z
" transform="scale(0.015625)"/>
       <path id="ArialMT-65" d="M 2694 1069 
L 3275 997 
Q 3138 488 2766 206 
Q 2394 -75 1816 -75 
Q 1088 -75 661 373 
Q 234 822 234 1631 
Q 234 2469 665 2931 
Q 1097 3394 1784 3394 
Q 2450 3394 2872 2941 
Q 3294 2488 3294 1666 
Q 3294 1616 3291 1516 
L 816 1516 
Q 847 969 1125 678 
Q 1403 388 1819 388 
Q 2128 388 2347 550 
Q 2566 713 2694 1069 
z
M 847 1978 
L 2700 1978 
Q 2663 2397 2488 2606 
Q 2219 2931 1791 2931 
Q 1403 2931 1139 2672 
Q 875 2413 847 1978 
z
" transform="scale(0.015625)"/>
       <path id="ArialMT-69" d="M 425 3934 
L 425 4581 
L 988 4581 
L 988 3934 
L 425 3934 
z
M 425 0 
L 425 3319 
L 988 3319 
L 988 0 
L 425 0 
z
" transform="scale(0.015625)"/>
       <path id="ArialMT-6e" d="M 422 0 
L 422 3319 
L 928 3319 
L 928 2847 
Q 1294 3394 1984 3394 
Q 2284 3394 2536 3286 
Q 2788 3178 2913 3003 
Q 3038 2828 3088 2588 
Q 3119 2431 3119 2041 
L 3119 0 
L 2556 0 
L 2556 2019 
Q 2556 2363 2490 2533 
Q 2425 2703 2258 2804 
Q 2091 2906 1866 2906 
Q 1506 2906 1245 2678 
Q 984 2450 984 1813 
L 984 0 
L 422 0 
z
" transform="scale(0.015625)"/>
      </defs>
      <use xlink:href="#ArialMT-6d"/>
      <use xlink:href="#ArialMT-65" x="83.300781"/>
      <use xlink:href="#ArialMT-64" x="138.916016"/>
      <use xlink:href="#ArialMT-69" x="194.53125"/>
      <use xlink:href="#ArialMT-61" x="216.748047"/>
      <use xlink:href="#ArialMT-6e" x="272.363281"/>
     </g>
    </g>
    <g id="patch_8">
     <path d="M 723.408437 56.093281 
L 745.408437 56.093281 
L 745.408437 48.393281 
L 723.408437 48.393281 
z
" style="fill: #1f78b4; fill-opacity: 0.4; stroke: #1f78b4; stroke-opacity: 0.4; stroke-linejoin: miter"/>
    </g>
    <g id="text_19">
     <!-- 50% PI -->
     <g style="fill: #262626" transform="translate(754.208437 56.093281) scale(0.11 -0.11)">
      <defs>
       <path id="ArialMT-25" d="M 372 3481 
Q 372 3972 619 4315 
Q 866 4659 1334 4659 
Q 1766 4659 2048 4351 
Q 2331 4044 2331 3447 
Q 2331 2866 2045 2552 
Q 1759 2238 1341 2238 
Q 925 2238 648 2547 
Q 372 2856 372 3481 
z
M 1350 4272 
Q 1141 4272 1002 4090 
Q 863 3909 863 3425 
Q 863 2984 1003 2804 
Q 1144 2625 1350 2625 
Q 1563 2625 1702 2806 
Q 1841 2988 1841 3469 
Q 1841 3913 1700 4092 
Q 1559 4272 1350 4272 
z
M 1353 -169 
L 3859 4659 
L 4316 4659 
L 1819 -169 
L 1353 -169 
z
M 3334 1075 
Q 3334 1569 3581 1911 
Q 3828 2253 4300 2253 
Q 4731 2253 5014 1945 
Q 5297 1638 5297 1041 
Q 5297 459 5011 145 
Q 4725 -169 4303 -169 
Q 3888 -169 3611 142 
Q 3334 453 3334 1075 
z
M 4316 1866 
Q 4103 1866 3964 1684 
Q 3825 1503 3825 1019 
Q 3825 581 3965 400 
Q 4106 219 4313 219 
Q 4528 219 4667 400 
Q 4806 581 4806 1063 
Q 4806 1506 4665 1686 
Q 4525 1866 4316 1866 
z
" transform="scale(0.015625)"/>
       <path id="ArialMT-20" transform="scale(0.015625)"/>
       <path id="ArialMT-50" d="M 494 0 
L 494 4581 
L 2222 4581 
Q 2678 4581 2919 4538 
Q 3256 4481 3484 4323 
Q 3713 4166 3852 3881 
Q 3991 3597 3991 3256 
Q 3991 2672 3619 2267 
Q 3247 1863 2275 1863 
L 1100 1863 
L 1100 0 
L 494 0 
z
M 1100 2403 
L 2284 2403 
Q 2872 2403 3119 2622 
Q 3366 2841 3366 3238 
Q 3366 3525 3220 3729 
Q 3075 3934 2838 4000 
Q 2684 4041 2272 4041 
L 1100 4041 
L 1100 2403 
z
" transform="scale(0.015625)"/>
       <path id="ArialMT-49" d="M 597 0 
L 597 4581 
L 1203 4581 
L 1203 0 
L 597 0 
z
" transform="scale(0.015625)"/>
      </defs>
      <use xlink:href="#ArialMT-35"/>
      <use xlink:href="#ArialMT-30" x="55.615234"/>
      <use xlink:href="#ArialMT-25" x="111.230469"/>
      <use xlink:href="#ArialMT-20" x="200.146484"/>
      <use xlink:href="#ArialMT-50" x="227.929688"/>
      <use xlink:href="#ArialMT-49" x="294.628906"/>
     </g>
    </g>
    <g id="patch_9">
     <path d="M 723.408437 71.653125 
L 745.408437 71.653125 
L 745.408437 63.953125 
L 723.408437 63.953125 
z
" style="fill: #a6cee3; fill-opacity: 0.4; stroke: #a6cee3; stroke-opacity: 0.4; stroke-linejoin: miter"/>
    </g>
    <g id="text_20">
     <!-- 95% PI -->
     <g style="fill: #262626" transform="translate(754.208437 71.653125) scale(0.11 -0.11)">
      <use xlink:href="#ArialMT-39"/>
      <use xlink:href="#ArialMT-35" x="55.615234"/>
      <use xlink:href="#ArialMT-25" x="111.230469"/>
      <use xlink:href="#ArialMT-20" x="200.146484"/>
      <use xlink:href="#ArialMT-50" x="227.929688"/>
      <use xlink:href="#ArialMT-49" x="294.628906"/>
     </g>
    </g>
   </g>
  </g>
 </g>
 <defs>
  <clipPath id="p234526304e">
   <rect x="43.908437" y="7.2" width="669.6" height="277.2"/>
  </clipPath>
 </defs>
</svg>
