<svg xmlns="http://www.w3.org/2000/svg" xmlns:xlink="http://www.w3.org/1999/xlink" width="358pt" height="188pt" viewBox="0.00 0.00 357.68 188.00">
<g id="graph0" class="graph" transform="scale(1 1) rotate(0) translate(4 184)">
<polygon fill="white" stroke="none" points="-4,4 -4,-184 353.68,-184 353.68,4 -4,4"/>
<!-- prepare@energy -->
<g id="node1" class="node">
<title>prepare@energy</title>
<ellipse fill="none" stroke="black" cx="81.29" cy="-162" rx="75.15" ry="18"/>
<text text-anchor="middle" x="81.29" y="-157.8" font-family="Times,serif" font-size="14.00">prepare@energy</text>
</g>
<!-- train@energy -->
<g id="node3" class="node">
<title>train@energy</title>
<ellipse fill="none" stroke="black" cx="110.29" cy="-90" rx="63.9" ry="18"/>
<text text-anchor="middle" x="110.29" y="-85.8" font-family="Times,serif" font-size="14.00">train@energy</text>
</g>
<!-- prepare@energy&#45;&gt;train@energy -->
<g id="edge1" class="edge">
<title>prepare@energy-&gt;train@energy</title>
<path fill="none" stroke="black" d="M88.46,-143.7C91.58,-136.15 95.32,-127.12 98.82,-118.68"/>
<polygon fill="black" stroke="black" points="102.03,-120.08 102.62,-109.5 95.56,-117.4 102.03,-120.08"/>
</g>
<!-- eval@energy -->
<g id="node5" class="node">
<title>eval@energy</title>
<ellipse fill="none" stroke="black" cx="62.29" cy="-18" rx="62.29" ry="18"/>
<text text-anchor="middle" x="62.29" y="-13.8" font-family="Times,serif" font-size="14.00">eval@energy</text>
</g>
<!-- prepare@energy&#45;&gt;eval@energy -->
<g id="edge2" class="edge">
<title>prepare@energy-&gt;eval@energy</title>
<path fill="none" stroke="black" d="M62.27,-144.38C52.8,-134.82 42.32,-121.95 37.29,-108 29.9,-87.53 37.35,-63.77 46,-45.95"/>
<polygon fill="black" stroke="black" points="48.99,-47.78 50.56,-37.3 42.8,-44.51 48.99,-47.78"/>
</g>
<!-- prepare@bikes -->
<g id="node2" class="node">
<title>prepare@bikes</title>
<ellipse fill="none" stroke="black" cx="278.29" cy="-162" rx="69.26" ry="18"/>
<text text-anchor="middle" x="278.29" y="-157.8" font-family="Times,serif" font-size="14.00">prepare@bikes</text>
</g>
<!-- train@bikes -->
<g id="node4" class="node">
<title>train@bikes</title>
<ellipse fill="none" stroke="black" cx="250.29" cy="-90" rx="58.01" ry="18"/>
<text text-anchor="middle" x="250.29" y="-85.8" font-family="Times,serif" font-size="14.00">train@bikes</text>
</g>
<!-- prepare@bikes&#45;&gt;train@bikes -->
<g id="edge3" class="edge">
<title>prepare@bikes-&gt;train@bikes</title>
<path fill="none" stroke="black" d="M271.37,-143.7C268.35,-136.15 264.73,-127.12 261.36,-118.68"/>
<polygon fill="black" stroke="black" points="264.65,-117.49 257.69,-109.51 258.16,-120.09 264.65,-117.49"/>
</g>
<!-- eval@bikes -->
<g id="node6" class="node">
<title>eval@bikes</title>
<ellipse fill="none" stroke="black" cx="293.29" cy="-18" rx="56.4" ry="18"/>
<text text-anchor="middle" x="293.29" y="-13.8" font-family="Times,serif" font-size="14.00">eval@bikes</text>
</g>
<!-- prepare@bikes&#45;&gt;eval@bikes -->
<g id="edge4" class="edge">
<title>prepare@bikes-&gt;eval@bikes</title>
<path fill="none" stroke="black" d="M294.77,-144.46C303.28,-134.73 312.8,-121.68 317.29,-108 324.02,-87.48 316.98,-63.85 308.82,-46.1"/>
<polygon fill="black" stroke="black" points="311.99,-44.62 304.39,-37.24 305.73,-47.75 311.99,-44.62"/>
</g>
<!-- train@energy&#45;&gt;eval@energy -->
<g id="edge5" class="edge">
<title>train@energy-&gt;eval@energy</title>
<path fill="none" stroke="black" d="M98.67,-72.05C93.13,-63.97 86.37,-54.12 80.19,-45.11"/>
<polygon fill="black" stroke="black" points="83.2,-43.31 74.66,-37.04 77.42,-47.26 83.2,-43.31"/>
</g>
<!-- submit -->
<g id="node7" class="node">
<title>submit</title>
<ellipse fill="none" stroke="black" cx="181.29" cy="-18" rx="37.33" ry="18"/>
<text text-anchor="middle" x="181.29" y="-13.8" font-family="Times,serif" font-size="14.00">submit</text>
</g>
<!-- train@energy&#45;&gt;submit -->
<g id="edge6" class="edge">
<title>train@energy-&gt;submit</title>
<path fill="none" stroke="black" d="M127.11,-72.41C136.21,-63.44 147.6,-52.21 157.58,-42.37"/>
<polygon fill="black" stroke="black" points="159.81,-45.09 164.48,-35.57 154.9,-40.1 159.81,-45.09"/>
</g>
<!-- train@bikes&#45;&gt;eval@bikes -->
<g id="edge7" class="edge">
<title>train@bikes-&gt;eval@bikes</title>
<path fill="none" stroke="black" d="M260.7,-72.05C265.61,-64.06 271.58,-54.33 277.07,-45.4"/>
<polygon fill="black" stroke="black" points="279.93,-47.43 282.18,-37.08 273.97,-43.77 279.93,-47.43"/>
</g>
<!-- train@bikes&#45;&gt;submit -->
<g id="edge8" class="edge">
<title>train@bikes-&gt;submit</title>
<path fill="none" stroke="black" d="M233.94,-72.41C225.18,-63.53 214.25,-52.44 204.62,-42.67"/>
<polygon fill="black" stroke="black" points="207.15,-40.25 197.64,-35.59 202.17,-45.17 207.15,-40.25"/>
</g>
</g>
</svg>