<?xml version="1.0" encoding="utf-8" standalone="no"?>
<!DOCTYPE svg PUBLIC "-//W3C//DTD SVG 1.1//EN"
  "http://www.w3.org/Graphics/SVG/1.1/DTD/svg11.dtd">
<svg xmlns:xlink="http://www.w3.org/1999/xlink" width="411.284375pt" height="315.078875pt" viewBox="0 0 411.284375 315.078875" xmlns="http://www.w3.org/2000/svg" version="1.1">
 <metadata>
  <rdf:RDF xmlns:dc="http://purl.org/dc/elements/1.1/" xmlns:cc="http://creativecommons.org/ns#" xmlns:rdf="http://www.w3.org/1999/02/22-rdf-syntax-ns#">
   <cc:Work>
    <dc:type rdf:resource="http://purl.org/dc/dcmitype/StillImage"/>
    <dc:date>2025-02-02T09:41:34.578227</dc:date>
    <dc:format>image/svg+xml</dc:format>
    <dc:creator>
     <cc:Agent>
      <dc:title>Matplotlib v3.9.2, https://matplotlib.org/</dc:title>
     </cc:Agent>
    </dc:creator>
   </cc:Work>
  </rdf:RDF>
 </metadata>
 <defs>
  <style type="text/css">*{stroke-linejoin: round; stroke-linecap: butt}</style>
 </defs>
 <g id="figure_1">
  <g id="patch_1">
   <path d="M 0 315.078875 
L 411.284375 315.078875 
L 411.284375 0 
L 0 0 
z
" style="fill: #ffffff"/>
  </g>
  <g id="axes_1">
   <g id="patch_2">
    <path d="M 46.964375 273.312 
L 404.084375 273.312 
L 404.084375 7.2 
L 46.964375 7.2 
z
" style="fill: #ffffff"/>
   </g>
   <g id="matplotlib.axis_1">
    <g id="xtick_1">
     <g id="line2d_1">
      <defs>
       <path id="m7d137d90d2" d="M 0 0 
L 0 6 
" style="stroke: #262626; stroke-width: 1.25"/>
      </defs>
      <g>
       <use xlink:href="#m7d137d90d2" x="82.676375" y="273.312" style="fill: #262626; stroke: #262626; stroke-width: 1.25"/>
      </g>
     </g>
     <g id="text_1">
      <!-- q0.025 -->
      <g style="fill: #262626" transform="translate(65.855828 290.71825) scale(0.11 -0.11)">
       <defs>
        <path id="ArialMT-71" d="M 2538 -1272 
L 2538 353 
Q 2406 169 2170 47 
Q 1934 -75 1669 -75 
Q 1078 -75 651 397 
Q 225 869 225 1691 
Q 225 2191 398 2587 
Q 572 2984 901 3189 
Q 1231 3394 1625 3394 
Q 2241 3394 2594 2875 
L 2594 3319 
L 3100 3319 
L 3100 -1272 
L 2538 -1272 
z
M 803 1669 
Q 803 1028 1072 708 
Q 1341 388 1716 388 
Q 2075 388 2334 692 
Q 2594 997 2594 1619 
Q 2594 2281 2320 2615 
Q 2047 2950 1678 2950 
Q 1313 2950 1058 2639 
Q 803 2328 803 1669 
z
" transform="scale(0.015625)"/>
        <path id="ArialMT-30" d="M 266 2259 
Q 266 3072 433 3567 
Q 600 4063 929 4331 
Q 1259 4600 1759 4600 
Q 2128 4600 2406 4451 
Q 2684 4303 2865 4023 
Q 3047 3744 3150 3342 
Q 3253 2941 3253 2259 
Q 3253 1453 3087 958 
Q 2922 463 2592 192 
Q 2263 -78 1759 -78 
Q 1097 -78 719 397 
Q 266 969 266 2259 
z
M 844 2259 
Q 844 1131 1108 757 
Q 1372 384 1759 384 
Q 2147 384 2411 759 
Q 2675 1134 2675 2259 
Q 2675 3391 2411 3762 
Q 2147 4134 1753 4134 
Q 1366 4134 1134 3806 
Q 844 3388 844 2259 
z
" transform="scale(0.015625)"/>
        <path id="ArialMT-2e" d="M 581 0 
L 581 641 
L 1222 641 
L 1222 0 
L 581 0 
z
" transform="scale(0.015625)"/>
        <path id="ArialMT-32" d="M 3222 541 
L 3222 0 
L 194 0 
Q 188 203 259 391 
Q 375 700 629 1000 
Q 884 1300 1366 1694 
Q 2113 2306 2375 2664 
Q 2638 3022 2638 3341 
Q 2638 3675 2398 3904 
Q 2159 4134 1775 4134 
Q 1369 4134 1125 3890 
Q 881 3647 878 3216 
L 300 3275 
Q 359 3922 746 4261 
Q 1134 4600 1788 4600 
Q 2447 4600 2831 4234 
Q 3216 3869 3216 3328 
Q 3216 3053 3103 2787 
Q 2991 2522 2730 2228 
Q 2469 1934 1863 1422 
Q 1356 997 1212 845 
Q 1069 694 975 541 
L 3222 541 
z
" transform="scale(0.015625)"/>
        <path id="ArialMT-35" d="M 266 1200 
L 856 1250 
Q 922 819 1161 601 
Q 1400 384 1738 384 
Q 2144 384 2425 690 
Q 2706 997 2706 1503 
Q 2706 1984 2436 2262 
Q 2166 2541 1728 2541 
Q 1456 2541 1237 2417 
Q 1019 2294 894 2097 
L 366 2166 
L 809 4519 
L 3088 4519 
L 3088 3981 
L 1259 3981 
L 1013 2750 
Q 1425 3038 1878 3038 
Q 2478 3038 2890 2622 
Q 3303 2206 3303 1553 
Q 3303 931 2941 478 
Q 2500 -78 1738 -78 
Q 1113 -78 717 272 
Q 322 622 266 1200 
z
" transform="scale(0.015625)"/>
       </defs>
       <use xlink:href="#ArialMT-71"/>
       <use xlink:href="#ArialMT-30" x="55.615234"/>
       <use xlink:href="#ArialMT-2e" x="111.230469"/>
       <use xlink:href="#ArialMT-30" x="139.013672"/>
       <use xlink:href="#ArialMT-32" x="194.628906"/>
       <use xlink:href="#ArialMT-35" x="250.244141"/>
      </g>
     </g>
    </g>
    <g id="xtick_2">
     <g id="line2d_2">
      <g>
       <use xlink:href="#m7d137d90d2" x="154.100375" y="273.312" style="fill: #262626; stroke: #262626; stroke-width: 1.25"/>
      </g>
     </g>
     <g id="text_2">
      <!-- q0.25 -->
      <g style="fill: #262626" transform="translate(140.338344 290.71825) scale(0.11 -0.11)">
       <use xlink:href="#ArialMT-71"/>
       <use xlink:href="#ArialMT-30" x="55.615234"/>
       <use xlink:href="#ArialMT-2e" x="111.230469"/>
       <use xlink:href="#ArialMT-32" x="139.013672"/>
       <use xlink:href="#ArialMT-35" x="194.628906"/>
      </g>
     </g>
    </g>
    <g id="xtick_3">
     <g id="line2d_3">
      <g>
       <use xlink:href="#m7d137d90d2" x="225.524375" y="273.312" style="fill: #262626; stroke: #262626; stroke-width: 1.25"/>
      </g>
     </g>
     <g id="text_3">
      <!-- q0.5 -->
      <g style="fill: #262626" transform="translate(214.820859 290.71825) scale(0.11 -0.11)">
       <use xlink:href="#ArialMT-71"/>
       <use xlink:href="#ArialMT-30" x="55.615234"/>
       <use xlink:href="#ArialMT-2e" x="111.230469"/>
       <use xlink:href="#ArialMT-35" x="139.013672"/>
      </g>
     </g>
    </g>
    <g id="xtick_4">
     <g id="line2d_4">
      <g>
       <use xlink:href="#m7d137d90d2" x="296.948375" y="273.312" style="fill: #262626; stroke: #262626; stroke-width: 1.25"/>
      </g>
     </g>
     <g id="text_4">
      <!-- q0.75 -->
      <g style="fill: #262626" transform="translate(283.186344 290.71825) scale(0.11 -0.11)">
       <defs>
        <path id="ArialMT-37" d="M 303 3981 
L 303 4522 
L 3269 4522 
L 3269 4084 
Q 2831 3619 2401 2847 
Q 1972 2075 1738 1259 
Q 1569 684 1522 0 
L 944 0 
Q 953 541 1156 1306 
Q 1359 2072 1739 2783 
Q 2119 3494 2547 3981 
L 303 3981 
z
" transform="scale(0.015625)"/>
       </defs>
       <use xlink:href="#ArialMT-71"/>
       <use xlink:href="#ArialMT-30" x="55.615234"/>
       <use xlink:href="#ArialMT-2e" x="111.230469"/>
       <use xlink:href="#ArialMT-37" x="139.013672"/>
       <use xlink:href="#ArialMT-35" x="194.628906"/>
      </g>
     </g>
    </g>
    <g id="xtick_5">
     <g id="line2d_5">
      <g>
       <use xlink:href="#m7d137d90d2" x="368.372375" y="273.312" style="fill: #262626; stroke: #262626; stroke-width: 1.25"/>
      </g>
     </g>
     <g id="text_5">
      <!-- q0.975 -->
      <g style="fill: #262626" transform="translate(351.551828 290.71825) scale(0.11 -0.11)">
       <defs>
        <path id="ArialMT-39" d="M 350 1059 
L 891 1109 
Q 959 728 1153 556 
Q 1347 384 1650 384 
Q 1909 384 2104 503 
Q 2300 622 2425 820 
Q 2550 1019 2634 1356 
Q 2719 1694 2719 2044 
Q 2719 2081 2716 2156 
Q 2547 1888 2255 1720 
Q 1963 1553 1622 1553 
Q 1053 1553 659 1965 
Q 266 2378 266 3053 
Q 266 3750 677 4175 
Q 1088 4600 1706 4600 
Q 2153 4600 2523 4359 
Q 2894 4119 3086 3673 
Q 3278 3228 3278 2384 
Q 3278 1506 3087 986 
Q 2897 466 2520 194 
Q 2144 -78 1638 -78 
Q 1100 -78 759 220 
Q 419 519 350 1059 
z
M 2653 3081 
Q 2653 3566 2395 3850 
Q 2138 4134 1775 4134 
Q 1400 4134 1122 3828 
Q 844 3522 844 3034 
Q 844 2597 1108 2323 
Q 1372 2050 1759 2050 
Q 2150 2050 2401 2323 
Q 2653 2597 2653 3081 
z
" transform="scale(0.015625)"/>
       </defs>
       <use xlink:href="#ArialMT-71"/>
       <use xlink:href="#ArialMT-30" x="55.615234"/>
       <use xlink:href="#ArialMT-2e" x="111.230469"/>
       <use xlink:href="#ArialMT-39" x="139.013672"/>
       <use xlink:href="#ArialMT-37" x="194.628906"/>
       <use xlink:href="#ArialMT-35" x="250.244141"/>
      </g>
     </g>
    </g>
    <g id="text_6">
     <!-- quantile -->
     <g style="fill: #262626" transform="translate(204.508438 305.493875) scale(0.12 -0.12)">
      <defs>
       <path id="ArialMT-75" d="M 2597 0 
L 2597 488 
Q 2209 -75 1544 -75 
Q 1250 -75 995 37 
Q 741 150 617 320 
Q 494 491 444 738 
Q 409 903 409 1263 
L 409 3319 
L 972 3319 
L 972 1478 
Q 972 1038 1006 884 
Q 1059 663 1231 536 
Q 1403 409 1656 409 
Q 1909 409 2131 539 
Q 2353 669 2445 892 
Q 2538 1116 2538 1541 
L 2538 3319 
L 3100 3319 
L 3100 0 
L 2597 0 
z
" transform="scale(0.015625)"/>
       <path id="ArialMT-61" d="M 2588 409 
Q 2275 144 1986 34 
Q 1697 -75 1366 -75 
Q 819 -75 525 192 
Q 231 459 231 875 
Q 231 1119 342 1320 
Q 453 1522 633 1644 
Q 813 1766 1038 1828 
Q 1203 1872 1538 1913 
Q 2219 1994 2541 2106 
Q 2544 2222 2544 2253 
Q 2544 2597 2384 2738 
Q 2169 2928 1744 2928 
Q 1347 2928 1158 2789 
Q 969 2650 878 2297 
L 328 2372 
Q 403 2725 575 2942 
Q 747 3159 1072 3276 
Q 1397 3394 1825 3394 
Q 2250 3394 2515 3294 
Q 2781 3194 2906 3042 
Q 3031 2891 3081 2659 
Q 3109 2516 3109 2141 
L 3109 1391 
Q 3109 606 3145 398 
Q 3181 191 3288 0 
L 2700 0 
Q 2613 175 2588 409 
z
M 2541 1666 
Q 2234 1541 1622 1453 
Q 1275 1403 1131 1340 
Q 988 1278 909 1158 
Q 831 1038 831 891 
Q 831 666 1001 516 
Q 1172 366 1500 366 
Q 1825 366 2078 508 
Q 2331 650 2450 897 
Q 2541 1088 2541 1459 
L 2541 1666 
z
" transform="scale(0.015625)"/>
       <path id="ArialMT-6e" d="M 422 0 
L 422 3319 
L 928 3319 
L 928 2847 
Q 1294 3394 1984 3394 
Q 2284 3394 2536 3286 
Q 2788 3178 2913 3003 
Q 3038 2828 3088 2588 
Q 3119 2431 3119 2041 
L 3119 0 
L 2556 0 
L 2556 2019 
Q 2556 2363 2490 2533 
Q 2425 2703 2258 2804 
Q 2091 2906 1866 2906 
Q 1506 2906 1245 2678 
Q 984 2450 984 1813 
L 984 0 
L 422 0 
z
" transform="scale(0.015625)"/>
       <path id="ArialMT-74" d="M 1650 503 
L 1731 6 
Q 1494 -44 1306 -44 
Q 1000 -44 831 53 
Q 663 150 594 308 
Q 525 466 525 972 
L 525 2881 
L 113 2881 
L 113 3319 
L 525 3319 
L 525 4141 
L 1084 4478 
L 1084 3319 
L 1650 3319 
L 1650 2881 
L 1084 2881 
L 1084 941 
Q 1084 700 1114 631 
Q 1144 563 1211 522 
Q 1278 481 1403 481 
Q 1497 481 1650 503 
z
" transform="scale(0.015625)"/>
       <path id="ArialMT-69" d="M 425 3934 
L 425 4581 
L 988 4581 
L 988 3934 
L 425 3934 
z
M 425 0 
L 425 3319 
L 988 3319 
L 988 0 
L 425 0 
z
" transform="scale(0.015625)"/>
       <path id="ArialMT-6c" d="M 409 0 
L 409 4581 
L 972 4581 
L 972 0 
L 409 0 
z
" transform="scale(0.015625)"/>
       <path id="ArialMT-65" d="M 2694 1069 
L 3275 997 
Q 3138 488 2766 206 
Q 2394 -75 1816 -75 
Q 1088 -75 661 373 
Q 234 822 234 1631 
Q 234 2469 665 2931 
Q 1097 3394 1784 3394 
Q 2450 3394 2872 2941 
Q 3294 2488 3294 1666 
Q 3294 1616 3291 1516 
L 816 1516 
Q 847 969 1125 678 
Q 1403 388 1819 388 
Q 2128 388 2347 550 
Q 2566 713 2694 1069 
z
M 847 1978 
L 2700 1978 
Q 2663 2397 2488 2606 
Q 2219 2931 1791 2931 
Q 1403 2931 1139 2672 
Q 875 2413 847 1978 
z
" transform="scale(0.015625)"/>
      </defs>
      <use xlink:href="#ArialMT-71"/>
      <use xlink:href="#ArialMT-75" x="55.615234"/>
      <use xlink:href="#ArialMT-61" x="111.230469"/>
      <use xlink:href="#ArialMT-6e" x="166.845703"/>
      <use xlink:href="#ArialMT-74" x="222.460938"/>
      <use xlink:href="#ArialMT-69" x="250.244141"/>
      <use xlink:href="#ArialMT-6c" x="272.460938"/>
      <use xlink:href="#ArialMT-65" x="294.677734"/>
     </g>
    </g>
   </g>
   <g id="matplotlib.axis_2">
    <g id="ytick_1">
     <g id="line2d_6">
      <defs>
       <path id="m04194ad5ce" d="M 0 0 
L -6 0 
" style="stroke: #262626; stroke-width: 1.25"/>
      </defs>
      <g>
       <use xlink:href="#m04194ad5ce" x="46.964375" y="265.50639" style="fill: #262626; stroke: #262626; stroke-width: 1.25"/>
      </g>
     </g>
     <g id="text_7">
      <!-- 0.0 -->
      <g style="fill: #262626" transform="translate(22.174375 269.443187) scale(0.11 -0.11)">
       <use xlink:href="#ArialMT-30"/>
       <use xlink:href="#ArialMT-2e" x="55.615234"/>
       <use xlink:href="#ArialMT-30" x="83.398438"/>
      </g>
     </g>
    </g>
    <g id="ytick_2">
     <g id="line2d_7">
      <g>
       <use xlink:href="#m04194ad5ce" x="46.964375" y="219.379168" style="fill: #262626; stroke: #262626; stroke-width: 1.25"/>
      </g>
     </g>
     <g id="text_8">
      <!-- 0.5 -->
      <g style="fill: #262626" transform="translate(22.174375 223.315965) scale(0.11 -0.11)">
       <use xlink:href="#ArialMT-30"/>
       <use xlink:href="#ArialMT-2e" x="55.615234"/>
       <use xlink:href="#ArialMT-35" x="83.398438"/>
      </g>
     </g>
    </g>
    <g id="ytick_3">
     <g id="line2d_8">
      <g>
       <use xlink:href="#m04194ad5ce" x="46.964375" y="173.251947" style="fill: #262626; stroke: #262626; stroke-width: 1.25"/>
      </g>
     </g>
     <g id="text_9">
      <!-- 1.0 -->
      <g style="fill: #262626" transform="translate(22.174375 177.188744) scale(0.11 -0.11)">
       <defs>
        <path id="ArialMT-31" d="M 2384 0 
L 1822 0 
L 1822 3584 
Q 1619 3391 1289 3197 
Q 959 3003 697 2906 
L 697 3450 
Q 1169 3672 1522 3987 
Q 1875 4303 2022 4600 
L 2384 4600 
L 2384 0 
z
" transform="scale(0.015625)"/>
       </defs>
       <use xlink:href="#ArialMT-31"/>
       <use xlink:href="#ArialMT-2e" x="55.615234"/>
       <use xlink:href="#ArialMT-30" x="83.398438"/>
      </g>
     </g>
    </g>
    <g id="ytick_4">
     <g id="line2d_9">
      <g>
       <use xlink:href="#m04194ad5ce" x="46.964375" y="127.124725" style="fill: #262626; stroke: #262626; stroke-width: 1.25"/>
      </g>
     </g>
     <g id="text_10">
      <!-- 1.5 -->
      <g style="fill: #262626" transform="translate(22.174375 131.061522) scale(0.11 -0.11)">
       <use xlink:href="#ArialMT-31"/>
       <use xlink:href="#ArialMT-2e" x="55.615234"/>
       <use xlink:href="#ArialMT-35" x="83.398438"/>
      </g>
     </g>
    </g>
    <g id="ytick_5">
     <g id="line2d_10">
      <g>
       <use xlink:href="#m04194ad5ce" x="46.964375" y="80.997504" style="fill: #262626; stroke: #262626; stroke-width: 1.25"/>
      </g>
     </g>
     <g id="text_11">
      <!-- 2.0 -->
      <g style="fill: #262626" transform="translate(22.174375 84.934301) scale(0.11 -0.11)">
       <use xlink:href="#ArialMT-32"/>
       <use xlink:href="#ArialMT-2e" x="55.615234"/>
       <use xlink:href="#ArialMT-30" x="83.398438"/>
      </g>
     </g>
    </g>
    <g id="ytick_6">
     <g id="line2d_11">
      <g>
       <use xlink:href="#m04194ad5ce" x="46.964375" y="34.870283" style="fill: #262626; stroke: #262626; stroke-width: 1.25"/>
      </g>
     </g>
     <g id="text_12">
      <!-- 2.5 -->
      <g style="fill: #262626" transform="translate(22.174375 38.807079) scale(0.11 -0.11)">
       <use xlink:href="#ArialMT-32"/>
       <use xlink:href="#ArialMT-2e" x="55.615234"/>
       <use xlink:href="#ArialMT-35" x="83.398438"/>
      </g>
     </g>
    </g>
    <g id="text_13">
     <!-- loss -->
     <g style="fill: #262626" transform="translate(15.789375 150.925687) rotate(-90) scale(0.12 -0.12)">
      <defs>
       <path id="ArialMT-6f" d="M 213 1659 
Q 213 2581 725 3025 
Q 1153 3394 1769 3394 
Q 2453 3394 2887 2945 
Q 3322 2497 3322 1706 
Q 3322 1066 3130 698 
Q 2938 331 2570 128 
Q 2203 -75 1769 -75 
Q 1072 -75 642 372 
Q 213 819 213 1659 
z
M 791 1659 
Q 791 1022 1069 705 
Q 1347 388 1769 388 
Q 2188 388 2466 706 
Q 2744 1025 2744 1678 
Q 2744 2294 2464 2611 
Q 2184 2928 1769 2928 
Q 1347 2928 1069 2612 
Q 791 2297 791 1659 
z
" transform="scale(0.015625)"/>
       <path id="ArialMT-73" d="M 197 991 
L 753 1078 
Q 800 744 1014 566 
Q 1228 388 1613 388 
Q 2000 388 2187 545 
Q 2375 703 2375 916 
Q 2375 1106 2209 1216 
Q 2094 1291 1634 1406 
Q 1016 1563 777 1677 
Q 538 1791 414 1992 
Q 291 2194 291 2438 
Q 291 2659 392 2848 
Q 494 3038 669 3163 
Q 800 3259 1026 3326 
Q 1253 3394 1513 3394 
Q 1903 3394 2198 3281 
Q 2494 3169 2634 2976 
Q 2775 2784 2828 2463 
L 2278 2388 
Q 2241 2644 2061 2787 
Q 1881 2931 1553 2931 
Q 1166 2931 1000 2803 
Q 834 2675 834 2503 
Q 834 2394 903 2306 
Q 972 2216 1119 2156 
Q 1203 2125 1616 2013 
Q 2213 1853 2448 1751 
Q 2684 1650 2818 1456 
Q 2953 1263 2953 975 
Q 2953 694 2789 445 
Q 2625 197 2315 61 
Q 2006 -75 1616 -75 
Q 969 -75 630 194 
Q 291 463 197 991 
z
" transform="scale(0.015625)"/>
      </defs>
      <use xlink:href="#ArialMT-6c"/>
      <use xlink:href="#ArialMT-6f" x="22.216797"/>
      <use xlink:href="#ArialMT-73" x="77.832031"/>
      <use xlink:href="#ArialMT-73" x="127.832031"/>
     </g>
    </g>
   </g>
   <g id="patch_3">
    <path d="M 54.106775 258.489431 
L 111.245975 258.489431 
L 111.245975 250.921964 
L 54.106775 250.921964 
L 54.106775 258.489431 
z
" clip-path="url(#pcd5eae8903)" style="fill: #5875a4; stroke: #4c4c4c; stroke-linejoin: miter"/>
   </g>
   <g id="line2d_12">
    <path d="M 82.676375 258.489431 
L 82.676375 261.216 
" clip-path="url(#pcd5eae8903)" style="fill: none; stroke: #4c4c4c"/>
   </g>
   <g id="line2d_13">
    <path d="M 82.676375 250.921964 
L 82.676375 242.52725 
" clip-path="url(#pcd5eae8903)" style="fill: none; stroke: #4c4c4c"/>
   </g>
   <g id="line2d_14">
    <path d="M 68.391575 261.216 
L 96.961175 261.216 
" clip-path="url(#pcd5eae8903)" style="fill: none; stroke: #4c4c4c; stroke-linecap: round"/>
   </g>
   <g id="line2d_15">
    <path d="M 68.391575 242.52725 
L 96.961175 242.52725 
" clip-path="url(#pcd5eae8903)" style="fill: none; stroke: #4c4c4c; stroke-linecap: round"/>
   </g>
   <g id="line2d_16">
    <defs>
     <path id="m63b185fb0b" d="M 0 3 
C 0.795609 3 1.55874 2.683901 2.12132 2.12132 
C 2.683901 1.55874 3 0.795609 3 0 
C 3 -0.795609 2.683901 -1.55874 2.12132 -2.12132 
C 1.55874 -2.683901 0.795609 -3 0 -3 
C -0.795609 -3 -1.55874 -2.683901 -2.12132 -2.12132 
C -2.683901 -1.55874 -3 -0.795609 -3 0 
C -3 0.795609 -2.683901 1.55874 -2.12132 2.12132 
C -1.55874 2.683901 -0.795609 3 0 3 
z
" style="stroke: #4c4c4c"/>
    </defs>
    <g clip-path="url(#pcd5eae8903)">
     <use xlink:href="#m63b185fb0b" x="82.676375" y="228.308966" style="fill-opacity: 0; stroke: #4c4c4c"/>
     <use xlink:href="#m63b185fb0b" x="82.676375" y="93.532846" style="fill-opacity: 0; stroke: #4c4c4c"/>
     <use xlink:href="#m63b185fb0b" x="82.676375" y="223.793092" style="fill-opacity: 0; stroke: #4c4c4c"/>
     <use xlink:href="#m63b185fb0b" x="82.676375" y="226.905822" style="fill-opacity: 0; stroke: #4c4c4c"/>
     <use xlink:href="#m63b185fb0b" x="82.676375" y="227.818076" style="fill-opacity: 0; stroke: #4c4c4c"/>
     <use xlink:href="#m63b185fb0b" x="82.676375" y="217.937526" style="fill-opacity: 0; stroke: #4c4c4c"/>
     <use xlink:href="#m63b185fb0b" x="82.676375" y="230.508402" style="fill-opacity: 0; stroke: #4c4c4c"/>
     <use xlink:href="#m63b185fb0b" x="82.676375" y="235.326617" style="fill-opacity: 0; stroke: #4c4c4c"/>
     <use xlink:href="#m63b185fb0b" x="82.676375" y="165.996574" style="fill-opacity: 0; stroke: #4c4c4c"/>
     <use xlink:href="#m63b185fb0b" x="82.676375" y="234.689399" style="fill-opacity: 0; stroke: #4c4c4c"/>
    </g>
   </g>
   <g id="patch_4">
    <path d="M 125.530775 227.355612 
L 182.669975 227.355612 
L 182.669975 200.072061 
L 125.530775 200.072061 
L 125.530775 227.355612 
z
" clip-path="url(#pcd5eae8903)" style="fill: #cc8963; stroke: #4c4c4c; stroke-linejoin: miter"/>
   </g>
   <g id="line2d_17">
    <path d="M 154.100375 227.355612 
L 154.100375 238.895824 
" clip-path="url(#pcd5eae8903)" style="fill: none; stroke: #4c4c4c"/>
   </g>
   <g id="line2d_18">
    <path d="M 154.100375 200.072061 
L 154.100375 167.215648 
" clip-path="url(#pcd5eae8903)" style="fill: none; stroke: #4c4c4c"/>
   </g>
   <g id="line2d_19">
    <path d="M 139.815575 238.895824 
L 168.385175 238.895824 
" clip-path="url(#pcd5eae8903)" style="fill: none; stroke: #4c4c4c; stroke-linecap: round"/>
   </g>
   <g id="line2d_20">
    <path d="M 139.815575 167.215648 
L 168.385175 167.215648 
" clip-path="url(#pcd5eae8903)" style="fill: none; stroke: #4c4c4c; stroke-linecap: round"/>
   </g>
   <g id="line2d_21">
    <g clip-path="url(#pcd5eae8903)">
     <use xlink:href="#m63b185fb0b" x="154.100375" y="19.296" style="fill-opacity: 0; stroke: #4c4c4c"/>
     <use xlink:href="#m63b185fb0b" x="154.100375" y="137.631169" style="fill-opacity: 0; stroke: #4c4c4c"/>
     <use xlink:href="#m63b185fb0b" x="154.100375" y="112.780301" style="fill-opacity: 0; stroke: #4c4c4c"/>
    </g>
   </g>
   <g id="patch_5">
    <path d="M 196.954775 214.905907 
L 254.093975 214.905907 
L 254.093975 185.403738 
L 196.954775 185.403738 
L 196.954775 214.905907 
z
" clip-path="url(#pcd5eae8903)" style="fill: #5f9e6e; stroke: #4c4c4c; stroke-linejoin: miter"/>
   </g>
   <g id="line2d_22">
    <path d="M 225.524375 214.905907 
L 225.524375 232.824868 
" clip-path="url(#pcd5eae8903)" style="fill: none; stroke: #4c4c4c"/>
   </g>
   <g id="line2d_23">
    <path d="M 225.524375 185.403738 
L 225.524375 149.727962 
" clip-path="url(#pcd5eae8903)" style="fill: none; stroke: #4c4c4c"/>
   </g>
   <g id="line2d_24">
    <path d="M 211.239575 232.824868 
L 239.809175 232.824868 
" clip-path="url(#pcd5eae8903)" style="fill: none; stroke: #4c4c4c; stroke-linecap: round"/>
   </g>
   <g id="line2d_25">
    <path d="M 211.239575 149.727962 
L 239.809175 149.727962 
" clip-path="url(#pcd5eae8903)" style="fill: none; stroke: #4c4c4c; stroke-linecap: round"/>
   </g>
   <g id="line2d_26">
    <g clip-path="url(#pcd5eae8903)">
     <use xlink:href="#m63b185fb0b" x="225.524375" y="65.188505" style="fill-opacity: 0; stroke: #4c4c4c"/>
     <use xlink:href="#m63b185fb0b" x="225.524375" y="135.104729" style="fill-opacity: 0; stroke: #4c4c4c"/>
    </g>
   </g>
   <g id="patch_6">
    <path d="M 268.378775 224.742983 
L 325.517975 224.742983 
L 325.517975 203.465549 
L 268.378775 203.465549 
L 268.378775 224.742983 
z
" clip-path="url(#pcd5eae8903)" style="fill: #b55d60; stroke: #4c4c4c; stroke-linejoin: miter"/>
   </g>
   <g id="line2d_27">
    <path d="M 296.948375 224.742983 
L 296.948375 240.157164 
" clip-path="url(#pcd5eae8903)" style="fill: none; stroke: #4c4c4c"/>
   </g>
   <g id="line2d_28">
    <path d="M 296.948375 203.465549 
L 296.948375 173.863614 
" clip-path="url(#pcd5eae8903)" style="fill: none; stroke: #4c4c4c"/>
   </g>
   <g id="line2d_29">
    <path d="M 282.663575 240.157164 
L 311.233175 240.157164 
" clip-path="url(#pcd5eae8903)" style="fill: none; stroke: #4c4c4c; stroke-linecap: round"/>
   </g>
   <g id="line2d_30">
    <path d="M 282.663575 173.863614 
L 311.233175 173.863614 
" clip-path="url(#pcd5eae8903)" style="fill: none; stroke: #4c4c4c; stroke-linecap: round"/>
   </g>
   <g id="line2d_31">
    <g clip-path="url(#pcd5eae8903)">
     <use xlink:href="#m63b185fb0b" x="296.948375" y="142.669205" style="fill-opacity: 0; stroke: #4c4c4c"/>
     <use xlink:href="#m63b185fb0b" x="296.948375" y="142.172838" style="fill-opacity: 0; stroke: #4c4c4c"/>
     <use xlink:href="#m63b185fb0b" x="296.948375" y="163.175194" style="fill-opacity: 0; stroke: #4c4c4c"/>
    </g>
   </g>
   <g id="patch_7">
    <path d="M 339.802775 258.05022 
L 396.941975 258.05022 
L 396.941975 253.071105 
L 339.802775 253.071105 
L 339.802775 258.05022 
z
" clip-path="url(#pcd5eae8903)" style="fill: #857aab; stroke: #4c4c4c; stroke-linejoin: miter"/>
   </g>
   <g id="line2d_32">
    <path d="M 368.372375 258.05022 
L 368.372375 260.484636 
" clip-path="url(#pcd5eae8903)" style="fill: none; stroke: #4c4c4c"/>
   </g>
   <g id="line2d_33">
    <path d="M 368.372375 253.071105 
L 368.372375 246.973765 
" clip-path="url(#pcd5eae8903)" style="fill: none; stroke: #4c4c4c"/>
   </g>
   <g id="line2d_34">
    <path d="M 354.087575 260.484636 
L 382.657175 260.484636 
" clip-path="url(#pcd5eae8903)" style="fill: none; stroke: #4c4c4c; stroke-linecap: round"/>
   </g>
   <g id="line2d_35">
    <path d="M 354.087575 246.973765 
L 382.657175 246.973765 
" clip-path="url(#pcd5eae8903)" style="fill: none; stroke: #4c4c4c; stroke-linecap: round"/>
   </g>
   <g id="line2d_36">
    <g clip-path="url(#pcd5eae8903)">
     <use xlink:href="#m63b185fb0b" x="368.372375" y="241.506763" style="fill-opacity: 0; stroke: #4c4c4c"/>
     <use xlink:href="#m63b185fb0b" x="368.372375" y="229.374846" style="fill-opacity: 0; stroke: #4c4c4c"/>
     <use xlink:href="#m63b185fb0b" x="368.372375" y="188.44172" style="fill-opacity: 0; stroke: #4c4c4c"/>
     <use xlink:href="#m63b185fb0b" x="368.372375" y="209.022309" style="fill-opacity: 0; stroke: #4c4c4c"/>
     <use xlink:href="#m63b185fb0b" x="368.372375" y="244.497442" style="fill-opacity: 0; stroke: #4c4c4c"/>
     <use xlink:href="#m63b185fb0b" x="368.372375" y="244.819307" style="fill-opacity: 0; stroke: #4c4c4c"/>
    </g>
   </g>
   <g id="line2d_37">
    <path d="M 54.106775 256.340053 
L 111.245975 256.340053 
" clip-path="url(#pcd5eae8903)" style="fill: none; stroke: #4c4c4c"/>
   </g>
   <g id="line2d_38">
    <path d="M 125.530775 215.74416 
L 182.669975 215.74416 
" clip-path="url(#pcd5eae8903)" style="fill: none; stroke: #4c4c4c"/>
   </g>
   <g id="line2d_39">
    <path d="M 196.954775 202.75844 
L 254.093975 202.75844 
" clip-path="url(#pcd5eae8903)" style="fill: none; stroke: #4c4c4c"/>
   </g>
   <g id="line2d_40">
    <path d="M 268.378775 216.44332 
L 325.517975 216.44332 
" clip-path="url(#pcd5eae8903)" style="fill: none; stroke: #4c4c4c"/>
   </g>
   <g id="line2d_41">
    <path d="M 339.802775 255.877005 
L 396.941975 255.877005 
" clip-path="url(#pcd5eae8903)" style="fill: none; stroke: #4c4c4c"/>
   </g>
   <g id="patch_8">
    <path d="M 46.964375 273.312 
L 46.964375 7.2 
" style="fill: none; stroke: #262626; stroke-width: 1.25; stroke-linejoin: miter; stroke-linecap: square"/>
   </g>
   <g id="patch_9">
    <path d="M 404.084375 273.312 
L 404.084375 7.2 
" style="fill: none; stroke: #262626; stroke-width: 1.25; stroke-linejoin: miter; stroke-linecap: square"/>
   </g>
   <g id="patch_10">
    <path d="M 46.964375 273.312 
L 404.084375 273.312 
" style="fill: none; stroke: #262626; stroke-width: 1.25; stroke-linejoin: miter; stroke-linecap: square"/>
   </g>
   <g id="patch_11">
    <path d="M 46.964375 7.2 
L 404.084375 7.2 
" style="fill: none; stroke: #262626; stroke-width: 1.25; stroke-linejoin: miter; stroke-linecap: square"/>
   </g>
  </g>
 </g>
 <defs>
  <clipPath id="pcd5eae8903">
   <rect x="46.964375" y="7.2" width="357.12" height="266.112"/>
  </clipPath>
 </defs>
</svg>
